<svg width="49" height="59" viewBox="0 0 49 59" fill="none" xmlns="http://www.w3.org/2000/svg">
<g clipPath="url(#clip0_1988_7338)">
<path d="M34.2713 5.6134C34.2816 6.23811 34.1586 6.89948 34.0506 7.48501C33.9488 8.15847 33.7924 8.82901 33.6148 9.48746C33.2958 10.7406 32.9073 12.0667 32.3303 13.2293C32.2457 13.3781 31.9665 13.2755 32.0299 13.1147C32.4793 11.8795 32.9925 10.6805 33.3448 9.41824C33.5103 8.78105 33.6637 8.1651 33.7747 7.52498C33.8977 6.86361 33.954 6.22057 34.0983 5.57128C34.1346 5.50752 34.265 5.52546 34.2713 5.6134Z" fill="#C88868"/>
<path d="M40.4224 12.0162C39.9127 11.9232 39.4272 11.7877 38.9025 11.7706C38.3779 11.7534 37.8594 11.8242 37.3926 11.9525C37.2926 11.98 37.2105 11.8771 37.2801 11.8041C37.4494 11.5066 37.5853 11.2182 37.6695 10.8723C37.7116 10.6994 37.7416 10.5477 37.7504 10.3839C37.7683 10.2535 37.7346 10.0655 37.8071 9.93798C37.8434 9.87422 37.9192 9.88923 37.9497 9.93466C38.0076 10.0801 37.9867 10.2652 37.9567 10.4168C37.9479 10.5806 37.9058 10.7536 37.8758 10.9053C37.7915 11.2512 37.6315 11.5821 37.4622 11.8796C37.4318 11.8342 37.3801 11.7766 37.3497 11.7312C37.8711 11.6058 38.4229 11.5259 38.9688 11.5551C39.4935 11.5723 40.0486 11.6349 40.507 11.8675C40.5466 11.9462 40.4983 12.0312 40.4224 12.0162Z" fill="#C88868"/>
<path d="M38.926 14.7903C38.5135 14.7244 38.1067 14.5493 37.6941 14.4834C37.2937 14.3963 36.869 14.3516 36.4656 14.3191C35.6254 14.2631 34.7886 14.3497 33.9671 14.5576C33.8458 14.573 33.785 14.4821 33.8242 14.3638C34.1652 13.517 34.2787 12.6251 34.1737 11.7216C34.1492 11.567 34.4009 11.5695 34.4255 11.7241C34.5395 12.661 34.4232 13.6074 34.058 14.4967C34.0063 14.4392 33.9546 14.3817 33.915 14.3029C34.7698 14.0859 35.64 13.9902 36.5014 14.0582C36.9169 14.0695 37.3295 14.1354 37.7513 14.2346C38.1518 14.3218 38.6281 14.424 38.9894 14.6295C39.0865 14.6566 39.0352 14.7962 38.926 14.7903Z" fill="#C88868"/>
<path d="M35.7356 16.4881C34.6763 16.0262 33.4569 15.8952 32.3383 16.1309C32.2383 16.1584 32.1562 16.0555 32.1712 15.9796C32.2759 15.2516 32.1593 14.5664 31.9001 13.8846C31.8635 13.7512 32.0544 13.6629 32.1244 13.7871C32.4381 14.4718 32.5155 15.2754 32.4321 16.0155C32.3683 15.9792 32.3166 15.9217 32.2529 15.8855C33.4503 15.6101 34.7001 15.7866 35.7719 16.4243C35.8265 16.4273 35.7781 16.5123 35.7356 16.4881Z" fill="#C88868"/>
<path d="M34.7887 8.22017C34.707 8.31435 34.607 8.34184 34.5161 8.40268C34.404 8.45142 34.3131 8.51226 34.1889 8.58226C33.9739 8.71309 33.7801 8.85602 33.5954 9.03228C33.5379 9.08395 33.4408 9.05685 33.4225 8.99017C33.2696 8.36877 33.0046 7.79612 32.6821 7.27514C32.6 7.17219 32.7697 7.07177 32.8517 7.17472C33.2288 7.69862 33.503 8.30462 33.6438 8.94727C33.5892 8.94434 33.5254 8.90808 33.4708 8.90516C33.6555 8.72889 33.8826 8.5768 34.1098 8.42472C34.234 8.35472 34.3248 8.29388 34.4582 8.25722C34.5703 8.20848 34.6824 8.15973 34.8129 8.17767C34.8037 8.14433 34.8008 8.19892 34.7887 8.22017Z" fill="#C88868"/>
<path d="M34.8556 10.8694C34.0671 10.8709 33.2944 11.1909 32.8134 11.7893C32.7438 11.8622 32.6587 11.8139 32.6192 11.7351C32.4333 11.32 32.2142 10.914 31.9254 10.581C31.7917 10.4206 31.6458 10.2813 31.4879 10.1634C31.3208 10.0121 31.1295 9.90328 30.9624 9.75198C30.847 9.6582 30.9862 9.51235 31.0924 9.57279C31.4992 9.74788 31.8942 10.1413 32.1709 10.4956C32.4688 10.862 32.7001 11.2467 32.8738 11.683C32.798 11.668 32.7555 11.6438 32.6796 11.6288C33.2181 10.9788 34.0696 10.6192 34.8948 10.751C34.916 10.7631 34.9102 10.8723 34.8556 10.8694Z" fill="#C88868"/>
<path d="M36.6163 22.3626C36.2521 22.2117 35.8999 22.0395 35.5236 21.9099C35.1473 21.7802 34.7923 21.6627 34.3918 21.5755C34.3159 21.5605 34.2763 21.4817 34.3126 21.418C34.4577 21.1629 34.6148 20.8866 34.7174 20.6074C34.7686 20.4678 34.8199 20.3282 34.8591 20.2099C34.8983 20.0915 34.9071 19.9277 34.9888 19.8336C35.0463 19.7819 35.11 19.8181 35.1405 19.8636C35.1771 19.9969 35.1138 20.1578 35.0746 20.2762C35.0233 20.4158 34.972 20.5554 34.9207 20.695C34.8061 20.9954 34.661 21.2505 34.5039 21.5268C34.4735 21.4813 34.4551 21.4147 34.4247 21.3692C35.1923 21.5527 35.9996 21.8149 36.6555 22.2443C36.7618 22.3047 36.7013 22.411 36.6163 22.3626Z" fill="#C88868"/>
<path d="M37.7362 24.5464C36.9606 24.921 36.1454 25.2168 35.3302 25.5126C35.3331 25.458 35.3481 25.3821 35.351 25.3275C35.8036 25.6693 36.1836 26.1386 36.3515 26.6842C36.3881 26.8175 36.2002 26.8513 36.1514 26.7392C35.9473 26.2574 35.6856 25.8272 35.2543 25.4975C35.1906 25.4613 35.1964 25.3521 35.2752 25.3125C36.0904 25.0167 36.8752 24.6755 37.6783 24.4009C37.7783 24.3735 37.815 24.5068 37.7362 24.5464Z" fill="#C88868"/>
<path d="M41.7409 9.89417C38.4892 11.1107 35.6242 13.0816 33.0692 15.3976C30.4901 17.7561 28.233 20.4385 26.2614 23.3113C22.3153 29.1116 19.6172 35.7344 18.0903 42.5731C17.2367 46.4476 16.829 50.3787 16.4639 54.3341C16.4401 54.5737 16.055 54.6079 16.0696 54.3349C16.0201 50.7625 16.5194 47.1647 17.2433 43.6666C17.958 40.1351 18.9641 36.6849 20.2918 33.3614C21.5954 30.0805 23.2116 26.8929 25.1223 23.9292C27.0664 20.9563 29.3173 18.186 31.8689 15.7275C34.351 13.3419 37.2006 11.2497 40.4706 10.0999C40.8615 9.95657 41.2616 9.8466 41.695 9.72746C41.7951 9.69997 41.8196 9.85458 41.7409 9.89417Z" fill="#C88868"/>
<path d="M29.2521 18.7946C29.7719 17.8807 30.8055 17.5966 31.7574 17.4067C32.7213 17.1955 33.7249 17.0631 34.7101 16.864C35.6741 16.6529 36.6623 16.3992 37.5104 15.8971C38.5161 15.3158 39.1664 14.4199 39.692 13.3968C40.3052 12.1704 40.7575 10.8806 41.6349 9.83258C41.6716 9.96594 41.6991 10.066 41.7358 10.1993C39.8912 9.88154 37.9416 10.0947 36.2174 10.8017C34.3145 11.5758 32.7189 12.9467 31.5973 14.6715C30.9291 15.6979 30.4643 16.8118 30.2149 17.9921C30.1728 18.165 29.8906 18.117 29.9236 17.9108C30.3681 15.7445 31.474 13.7013 33.13 12.2241C34.6254 10.8807 36.5222 10.0187 38.5201 9.72051C39.6237 9.56061 40.7398 9.57658 41.835 9.77759C42.0079 9.8197 42.0296 10.0289 41.9358 10.1443C40.4382 11.9366 40.1491 14.4725 38.211 15.9018C36.6484 17.0664 34.6109 17.2858 32.7434 17.6019C31.6277 17.783 30.1632 17.9345 29.4313 18.9247C29.3404 18.9855 29.1917 18.9009 29.2521 18.7946Z" fill="#C88868"/>
<path d="M29.8123 18.1551C29.344 17.4949 29.2178 16.5793 29.1616 15.7879C29.1084 14.9419 29.1764 14.0804 29.3749 13.237C29.7956 11.3104 30.7777 9.53427 31.9361 7.94283C32.668 6.95271 33.4516 6.02012 34.2565 5.0996C34.3503 4.98418 34.5991 5.0413 34.6237 5.19592C34.9643 7.21805 35.0624 9.27099 34.8875 11.3093C34.8758 11.5277 34.5362 11.5314 34.5479 11.313C34.6986 9.31721 34.5884 7.28552 34.1902 5.31506C34.3086 5.35425 34.439 5.37218 34.5574 5.41137C32.149 8.26084 29.5956 11.3653 29.5489 15.3049C29.5346 15.775 29.575 16.248 29.6487 16.7119C29.7224 17.1757 29.8628 17.6213 29.9578 18.0972C29.9853 18.1972 29.8731 18.246 29.8123 18.1551Z" fill="#C88868"/>
<path d="M24.0295 26.3411C24.6947 25.3693 25.6667 24.6001 26.6753 23.9642C27.696 23.3072 28.8292 22.7984 29.987 22.4443C31.1782 22.0811 32.4334 21.9512 33.6803 22.1822C34.8939 22.4224 36.0353 22.9873 37.0496 23.6767C38.2431 24.4962 39.2974 25.4615 40.3395 26.4481C40.4854 26.5873 40.3282 26.8636 40.134 26.8094C38.0128 26.1373 35.8827 27.0635 33.8764 27.7226C32.8732 28.0521 31.8396 28.3362 30.7752 28.3778C29.7108 28.4193 28.649 28.2091 27.6475 27.8927C26.4853 27.5129 25.3984 26.951 24.36 26.304C24.1262 26.1711 24.3438 25.7885 24.5776 25.9215C26.4116 27.049 28.4727 28.0245 30.6773 27.9564C32.8486 27.8975 34.7904 26.8079 36.873 26.361C37.9916 26.1253 39.1348 26.0441 40.2333 26.3877C40.1607 26.5152 40.1003 26.6214 40.0278 26.749C38.308 25.1238 36.4183 23.402 34.0879 22.7516C31.7787 22.1132 29.3177 22.8793 27.2942 24.0631C26.1309 24.7235 25.1865 25.5927 24.1662 26.447C24.0966 26.5199 23.9599 26.414 24.0295 26.3411Z" fill="#C88868"/>
<path d="M39.6176 26.4333C38.6254 26.1502 37.6573 25.8246 36.6471 25.672C35.5944 25.4951 34.5479 25.4062 33.4865 25.3932C32.4371 25.3589 31.3635 25.3671 30.2991 25.4086C29.356 25.4348 28.4037 25.4276 27.4669 25.5416C26.9605 25.5912 26.4512 25.6953 25.9511 25.8328C25.4389 25.9915 24.9875 26.2411 24.524 26.5119C24.3665 26.5911 24.1811 26.3731 24.3294 26.2606C24.9955 25.683 25.9503 25.4385 26.8022 25.2761C27.7632 25.1195 28.7276 25.1055 29.6707 25.0793C31.842 25.0204 34.0316 25.0282 36.1824 25.3514C37.3443 25.5341 38.5791 25.7864 39.6114 26.3454C39.7206 26.3512 39.6935 26.4483 39.6176 26.4333Z" fill="#C88868"/>
<path d="M24.7548 25.0648C24.8878 24.831 24.9782 24.573 25.1112 24.3393C25.2563 24.0842 25.4226 23.8413 25.6222 23.5892C25.9399 23.1791 26.2787 22.7812 26.648 22.4286C27.4229 21.6598 28.3223 21.0181 29.3009 20.534C31.2247 19.5748 33.4015 19.2096 35.534 19.4662C36.7413 19.6184 37.8944 19.9649 38.9933 20.5056C39.0996 20.566 39.1546 20.7661 39.0395 20.8694C38.0342 21.6478 37.0381 22.4595 36.0115 23.2258C35.8632 23.3383 35.6686 23.087 35.7957 22.9624C36.7372 22.1477 37.7425 21.3693 38.7053 20.5668C38.7207 20.6881 38.7362 20.8094 38.7516 20.9306C36.915 20.0548 34.8642 19.7041 32.8359 19.9568C30.7741 20.2187 28.7986 21.1203 27.2577 22.4941C26.8217 22.865 26.4283 23.26 26.0652 23.7005C25.6688 24.1501 25.2574 24.6756 24.9461 25.1736C24.8431 25.2557 24.6944 25.171 24.7548 25.0648Z" fill="#C88868"/>
<path d="M38.5549 21.133C37.4088 21.2687 36.2594 21.2619 35.1316 21.4643C34.5677 21.5655 34.0464 21.6909 33.5129 21.8375C32.9674 22.0054 32.4189 22.2279 31.8642 22.3624C31.7641 22.3899 31.685 22.2324 31.7971 22.1836C32.2726 21.8916 32.8607 21.7479 33.385 21.5679C33.9639 21.3908 34.5399 21.2684 35.1371 21.158C36.2528 20.9769 37.4443 20.8107 38.5607 21.0238C38.6032 21.048 38.5882 21.1238 38.5549 21.133Z" fill="#C88868"/>
<path d="M22.6531 28.3137C23.0512 27.2181 23.4827 26.1134 23.7958 24.9694C24.1181 23.8588 24.3554 22.6999 24.5047 21.5471C24.8275 19.1992 24.7924 16.7883 24.3814 14.4448C24.1665 13.1412 23.8091 11.8409 23.3608 10.6014C23.4912 10.6193 23.6217 10.6373 23.7309 10.6431C21.3561 15.115 19.7318 20.295 21.0489 25.3479C21.3638 26.6241 21.8788 27.8452 22.5846 28.978C22.4846 29.0055 22.3846 29.033 22.2846 29.0605C22.5649 26.6884 22.7148 24.2983 22.798 21.9266C22.8813 19.5549 22.8099 17.2077 22.7839 14.8301C22.7632 13.5807 22.8184 12.3463 23.2103 11.1627C23.2766 10.9473 23.5891 11.0407 23.5349 11.2349C22.8174 13.3865 23.1618 15.7483 23.1632 17.9712C23.18 20.3155 23.0755 22.6751 22.9285 25.0106C22.8342 26.3634 22.7186 27.704 22.603 29.0447C22.5942 29.2085 22.3821 29.2847 22.3029 29.1272C19.5103 24.8385 19.8027 19.379 21.4645 14.7266C21.9923 13.2547 22.6384 11.822 23.3908 10.4497C23.4875 10.2797 23.703 10.346 23.7609 10.4914C25.3803 15.013 25.5601 20.0378 24.2834 24.6561C23.919 25.9397 23.4667 27.2295 22.8139 28.3771C22.7656 28.4621 22.626 28.4108 22.6531 28.3137Z" fill="#C88868"/>
<path d="M18.319 40.1416C19.4867 40.2151 20.6211 40.2978 21.7855 40.2287C22.9499 40.1597 24.111 39.9481 25.2446 39.6365C27.5119 39.0133 29.672 37.9355 31.4918 36.467C32.5212 35.6462 33.4474 34.7102 34.2581 33.6805C34.3068 33.7927 34.3556 33.9048 34.4043 34.0169C29.788 33.7258 24.7148 33.9907 21.0332 37.1005C20.0584 37.9243 19.2051 38.9298 18.619 40.0591C18.5102 40.2504 18.2127 40.0812 18.3002 39.8778C19.3211 37.7862 21.1588 36.1874 23.2281 35.1703C25.3762 34.1137 27.7651 33.6722 30.1697 33.5492C31.5859 33.4827 32.9962 33.5254 34.3944 33.5893C34.5794 33.6101 34.6465 33.7889 34.5406 33.9256C31.6337 37.7011 27.0591 40.106 22.3168 40.5309C20.9857 40.6458 19.5846 40.6364 18.286 40.3479C18.1768 40.342 18.1885 40.1237 18.319 40.1416Z" fill="#C88868"/>
<path d="M34.2894 34.1174C33.2558 34.4015 32.1644 34.5401 31.1216 34.7909C30.0576 35.0295 29.0119 35.3349 27.9967 35.6857C25.9237 36.363 23.9056 37.2405 21.9759 38.3088C20.9156 38.8871 19.8737 39.5321 18.8621 40.2226C18.6925 40.323 18.5525 40.0746 18.7009 39.9621C22.3169 37.462 26.3772 35.6646 30.6269 34.622C31.8031 34.3346 33.0458 34.0288 34.2619 34.0173C34.3407 33.9777 34.3682 34.0778 34.2894 34.1174Z" fill="#C88868"/>
<path d="M16.9103 45.3905C17.1171 44.1861 17.2573 43 17.2458 41.784C17.2222 40.5891 17.0773 39.4097 16.7778 38.2548C16.1634 35.8238 14.8821 33.5761 13.1378 31.7964C12.1319 30.746 10.9747 29.8628 9.68741 29.1587C9.76911 29.0646 9.88414 28.9612 9.96584 28.867C11.0583 30.7542 11.1598 32.9497 11.4187 35.066C11.5453 36.1788 11.7598 37.2853 12.1864 38.3155C12.6405 39.4458 13.3189 40.4786 14.1456 41.3989C15.0757 42.4342 16.1691 43.2812 17.308 44.0978C17.2171 44.1586 17.1475 44.2315 17.0446 44.3136C16.8363 43.2951 16.4856 42.2798 16.156 41.2766C15.8265 40.2735 15.4515 39.3007 15.0553 38.3159C14.2296 36.3554 13.2704 34.4315 12.1842 32.6323C11.5817 31.6145 10.9125 30.615 10.2312 29.6368C10.1187 29.4884 10.3913 29.3059 10.4917 29.4756C12.9339 32.9462 14.9097 36.7422 16.3157 40.7486C16.7031 41.8973 17.0239 43.0642 17.4113 44.2128C17.4693 44.3583 17.2755 44.5012 17.1479 44.4287C15.1106 43.2136 13.2387 41.3613 12.17 39.2345C11.1409 37.1864 11.0757 34.9272 10.7559 32.72C10.5715 31.4618 10.287 30.2311 9.6449 29.1346C9.54449 28.9649 9.75331 28.7462 9.92333 28.8429C14.4348 31.2964 17.4073 36.1095 17.5997 41.3102C17.657 42.693 17.5355 44.1428 17.1257 45.4568C17.0744 45.5964 16.8802 45.5422 16.9103 45.3905Z" fill="#C88868"/>
<path d="M17.9482 40.0997C18.3957 37.8789 18.6247 35.6464 18.4717 33.3934C18.3065 31.1616 17.8016 28.9336 16.9484 26.8731C16.4638 25.6973 15.858 24.537 15.1705 23.4709C15.2826 23.4221 15.4281 23.3642 15.5402 23.3155C16.2716 26.6288 14.0579 29.7296 14.5709 33.0311C14.6046 33.2191 14.3045 33.3016 14.2708 33.1136C13.6911 29.8304 15.8411 26.6933 15.1068 23.4346C15.0639 23.2133 15.3669 23.0762 15.4764 23.2792C17.9861 27.1257 19.1478 31.8089 18.793 36.389C18.6803 37.6751 18.4706 38.9341 18.0545 40.1601C18.0516 40.2147 17.9332 40.1755 17.9482 40.0997Z" fill="#C88868"/>
<path d="M15.5506 24.1367C16.0318 25.1699 16.2888 26.3006 16.5579 27.41C16.8362 28.5528 17.0598 29.6926 17.2714 30.8537C17.6549 33.0972 17.8505 35.3743 17.8703 37.664C17.8972 39.0013 17.827 40.3116 17.7447 41.6431C17.7481 41.7856 17.5176 41.7952 17.5143 41.6527C17.8782 37.1059 17.4504 32.4182 16.4074 27.9714C16.2758 27.362 16.1108 26.7619 15.9579 26.1405C15.7838 25.507 15.5763 24.8827 15.4476 24.2188C15.4414 24.1308 15.5323 24.07 15.5506 24.1367Z" fill="#C88868"/>
<path d="M30.1008 12.1593C30.3283 12.2044 30.5258 12.4011 30.6808 12.5737C30.8571 12.7583 31 12.9521 31.0975 13.1763C31.2071 13.3793 31.2925 13.6248 31.3567 13.8582C31.3721 13.9795 31.3996 14.0795 31.415 14.2008C31.4304 14.322 31.4549 14.4767 31.352 14.5588C31.3278 14.6013 31.2399 14.6075 31.2095 14.5621C31.1274 14.4591 31.1666 14.3408 31.1391 14.2407C31.1449 14.1316 31.1174 14.0315 31.0899 13.9315C31.047 13.7102 30.9708 13.4981 30.8612 13.2951C30.7516 13.0921 30.63 12.9104 30.4749 12.7378C30.3199 12.5653 30.1287 12.4565 30.007 12.2748C29.9553 12.2173 30.0249 12.1443 30.1008 12.1593Z" fill="#C88868"/>
<path d="M29.3731 14.4726C29.6827 14.6206 29.9015 14.8294 30.1173 15.0928C30.2086 15.2291 30.2998 15.3654 30.3698 15.4896C30.449 15.6471 30.5281 15.8047 30.5527 15.9593C30.5681 16.0806 30.4348 16.1172 30.386 16.0051C30.3281 15.8597 30.2914 15.7263 30.2335 15.5809C30.1635 15.4567 30.0723 15.3204 30.0023 15.1962C29.8289 14.9569 29.5889 14.736 29.3581 14.5485C29.261 14.5214 29.3093 14.4363 29.3731 14.4726Z" fill="#C88868"/>
<path d="M31.7993 19.9078C31.8276 20.4021 31.7254 20.8784 31.5474 21.3397C31.4811 21.5552 31.3815 21.7798 31.2606 21.9923C31.1397 22.2049 31.0067 22.4387 30.8554 22.6058C30.7525 22.6878 30.5946 22.5699 30.655 22.4636C30.7759 22.2511 30.9059 22.0719 31.0268 21.8594C31.1356 21.6681 31.2232 21.4647 31.3015 21.228C31.4675 20.788 31.5242 20.342 31.6143 19.887C31.6322 19.7565 31.7839 19.7865 31.7993 19.9078Z" fill="#C88868"/>
<path d="M28.2019 21.6303C28.236 22.0154 28.0943 22.4129 27.9767 22.768C27.8471 23.1443 27.6749 23.4964 27.4815 23.8365C27.3848 24.0065 27.1297 23.8614 27.2264 23.6914C27.4199 23.3514 27.5799 23.0205 27.6975 22.6654C27.8151 22.3104 27.8901 21.9311 28.0502 21.6002C28.0773 21.5031 28.1836 21.5636 28.2019 21.6303Z" fill="#C88868"/>
<path d="M34.2248 22.86C34.1556 23.1301 33.9439 23.4034 33.7684 23.613C33.5566 23.8864 33.3024 24.1356 33.039 24.3514C32.5455 24.774 31.9912 25.1056 31.3881 25.3252C31.4031 25.2493 31.4302 25.1522 31.4452 25.0764C31.819 25.4578 32.114 25.8787 32.3515 26.3513C32.5707 26.7573 32.8386 27.2753 32.8456 27.7575C32.8427 27.8121 32.7639 27.8517 32.7122 27.7942C32.4718 27.3762 32.3556 26.8881 32.1152 26.4701C31.8535 26.04 31.5798 25.6311 31.2151 25.2831C31.121 25.2014 31.1814 25.0951 31.2723 25.0343C31.8541 24.8026 32.3963 24.4922 32.8777 24.0909C33.0957 23.9055 33.3045 23.6867 33.5013 23.4892C33.6888 23.2584 33.846 22.9821 34.064 22.7966C34.1457 22.7025 34.2519 22.7629 34.2248 22.86Z" fill="#C88868"/>
<path d="M29.2461 28.0994C28.7648 27.0662 27.9473 26.1793 26.9576 25.6445C26.8725 25.5961 26.8692 25.4536 26.948 25.414C27.8449 25.024 28.4922 24.1827 28.642 23.2271C28.672 23.0754 28.9208 23.1325 28.8907 23.2842C28.726 24.3156 28.0424 25.2207 27.0788 25.629C27.0726 25.5411 27.0755 25.4865 27.0693 25.3986C28.1228 25.9697 28.9495 26.89 29.3703 28.0294C29.4098 28.1082 29.2856 28.1782 29.2461 28.0994Z" fill="#C88868"/>
<path d="M30.2442 34.0136C29.7724 34.6454 29.1335 35.1258 28.4153 35.4487C28.4183 35.3941 28.4091 35.3608 28.3908 35.2941C29.5618 35.5101 30.8208 35.7199 31.6567 36.6735C31.7296 36.7431 31.6025 36.8677 31.5296 36.7981C30.7454 35.902 29.4772 35.6589 28.3487 35.467C28.2728 35.452 28.2666 35.3641 28.3241 35.3124C29.0209 34.9774 29.6053 34.4941 30.1076 33.9078C30.1893 33.8136 30.2926 33.9286 30.2442 34.0136Z" fill="#C88868"/>
<path d="M28.3177 38.4865C27.8589 38.0567 27.4093 37.6603 26.8567 37.346C26.3254 37.0438 25.7216 36.8691 25.1027 36.7703C25.0268 36.7553 24.9781 36.6432 25.0144 36.5794C25.3953 36.0085 25.588 35.2742 25.4926 34.6011C25.4651 34.5011 25.641 34.4886 25.6564 34.6099C25.7026 34.9737 25.7276 35.3255 25.6525 35.7047C25.5683 36.0506 25.4295 36.3936 25.2269 36.7003C25.2086 36.6336 25.1781 36.5882 25.1386 36.5094C26.3884 36.6858 27.6665 37.3566 28.3661 38.4014C28.4511 38.4498 28.3602 38.5106 28.3177 38.4865Z" fill="#C88868"/>
<path d="M22.2077 36.0212C22.1125 36.9797 21.7353 37.8903 21.1575 38.6587C21.1271 38.6132 21.1088 38.5466 21.0784 38.5011C22.0948 38.7417 23.0512 39.2857 23.7775 40.0364C23.8809 40.1514 23.7083 40.3064 23.605 40.1914C22.8999 39.4528 22.0194 38.9238 21.0242 38.6953C20.9696 38.6924 20.9088 38.6016 20.945 38.5378C21.5106 37.7906 21.8637 36.9226 22.056 35.9911C22.1014 35.9607 22.2106 35.9666 22.2077 36.0212Z" fill="#C88868"/>
<path d="M24.4453 14.091C24.2002 14.3736 23.9217 14.6652 23.6979 14.9599C23.462 15.2757 23.2473 15.6037 23.0539 15.9437C23.0176 16.0075 22.9297 16.0137 22.8901 15.935C22.7501 15.6866 22.5889 15.4261 22.4155 15.1868C22.2422 14.9476 22.0355 14.7175 21.8501 14.4995C21.768 14.3966 21.9072 14.2507 21.9893 14.3537C22.2081 14.5625 22.4027 14.8138 22.5639 15.0743C22.7372 15.3136 22.8864 15.5953 23.0356 15.8771C22.981 15.8741 22.9264 15.8712 22.8718 15.8683C23.2799 15.2003 23.7546 14.5139 24.4027 14.0668C24.439 14.0031 24.4694 14.0485 24.4453 14.091Z" fill="#C88868"/>
<path d="M24.89 18.2511C24.1994 18.674 23.5513 19.1211 23.0036 19.7378C22.934 19.8107 22.849 19.7624 22.8094 19.6836C22.4953 18.8017 21.8327 18.0873 20.9647 17.7342C20.8463 17.695 20.9339 17.4917 21.0522 17.5308C21.9961 17.899 22.7104 18.6709 23.0307 19.6407C22.9549 19.6257 22.9124 19.6015 22.8365 19.5865C23.3842 18.9698 24.0473 18.4468 24.8292 18.1602C24.908 18.1206 24.9688 18.2115 24.89 18.2511Z" fill="#C88868"/>
<path d="M24.4615 22.3686C23.9292 23.1067 23.4394 23.8688 23.1197 24.7277C23.0926 24.8248 22.9713 24.8402 22.9105 24.7494C22.2471 23.6407 21.4233 22.6658 20.4482 21.858C20.3328 21.7643 20.4962 21.5759 20.6208 21.703C21.6051 22.5442 22.4501 23.5311 23.1014 24.661C23.0347 24.6794 22.9467 24.6856 22.8921 24.6827C23.224 23.8025 23.6954 22.9737 24.3552 22.3082C24.4249 22.2353 24.519 22.317 24.4615 22.3686Z" fill="#C88868"/>
<path d="M17.4233 27.616C17.3332 28.0711 17.1339 28.5204 16.968 28.9604C16.953 29.0363 16.853 29.0638 16.8013 29.0063C16.2454 28.5494 15.6774 28.1139 15.1215 27.657C15.0061 27.5632 15.1666 27.4295 15.2728 27.4899C15.8287 27.9468 16.3846 28.4036 16.9405 28.8604C16.8738 28.8787 16.8405 28.8879 16.7738 28.9062C16.9397 28.4662 17.0752 27.9807 17.2836 27.5648C17.3199 27.501 17.4383 27.5402 17.4233 27.616Z" fill="#C88868"/>
<path d="M18.1953 31.2095C18.1473 31.4917 17.9447 31.7984 17.8117 32.0321C17.6546 32.3084 17.5066 32.6181 17.3495 32.8943C17.3132 32.9581 17.2253 32.9643 17.1857 32.8856C16.8632 32.3646 16.4619 31.8832 15.991 31.4747C15.7602 31.2872 15.496 31.1087 15.2409 30.9637C14.9646 30.8065 14.6642 30.6919 14.397 30.5681C14.312 30.5197 14.3633 30.3801 14.4604 30.4072C15.0643 30.5819 15.6352 30.9629 16.1181 31.3501C16.6224 31.7494 17.0661 32.255 17.3978 32.8093C17.3432 32.8064 17.2886 32.8035 17.234 32.8006C17.3912 32.5243 17.5392 32.2146 17.6963 31.9384C17.8414 31.6833 17.9681 31.3616 18.1648 31.1641C18.1557 31.1307 18.2194 31.167 18.1953 31.2095Z" fill="#C88868"/>
<path d="M18.538 34.8057C18.1962 35.2582 17.8544 35.7108 17.5856 36.2329C17.5614 36.2754 17.4735 36.2817 17.443 36.2362C16.9985 35.3364 16.1601 34.6345 15.2132 34.321C15.0736 34.2697 15.1399 34.0542 15.2795 34.1055C16.3234 34.4461 17.1164 35.1785 17.5672 36.1662C17.5127 36.1633 17.4793 36.1725 17.4247 36.1696C17.6936 35.6474 18.005 35.1494 18.4318 34.7452C18.5439 34.6965 18.5956 34.754 18.538 34.8057Z" fill="#C88868"/>
<path d="M12.9271 31.4198C12.9162 32.0325 12.8173 32.6513 12.7397 33.2823C12.7368 33.3369 12.6793 33.3886 12.6155 33.3523C12.1267 33.0743 11.6137 32.8387 11.0644 32.667C10.9461 32.6278 10.9882 32.4548 11.1066 32.494C11.6558 32.6658 12.1901 32.9134 12.7001 33.2035C12.6547 33.2339 12.6214 33.2431 12.5759 33.2735C12.6414 32.6638 12.6978 32.0208 12.8391 31.4261C12.8329 31.3381 12.9421 31.344 12.9271 31.4198Z" fill="#C88868"/>
<path d="M14.9918 34.1687C14.9776 34.6388 14.8875 35.0939 14.84 35.5732C14.7924 36.0525 14.7569 36.5105 14.7427 36.9806C14.7277 37.0564 14.6581 37.1293 14.5731 37.081C13.5829 36.349 12.4357 35.8934 11.2163 35.7624C11.0646 35.7323 11.0763 35.514 11.2067 35.5319C12.4595 35.6537 13.6492 36.1336 14.6485 36.8989C14.6031 36.9293 14.5577 36.9597 14.4789 36.9993C14.5052 36.5079 14.5528 36.0287 14.6003 35.5494C14.6479 35.0701 14.6834 34.6121 14.8068 34.1479C14.8764 34.075 15.0069 34.0929 14.9918 34.1687Z" fill="#C88868"/>
<path d="M16.5938 37.582C16.6054 38.7981 16.4106 39.9812 16.3463 41.1823C16.3313 41.2581 16.2617 41.331 16.1887 41.2614C15.6512 40.8713 15.0894 40.5236 14.4914 40.2398C14.203 40.1039 13.8813 39.9771 13.5809 39.8625C13.2804 39.7478 12.9316 39.7182 12.6432 39.5823C12.5369 39.5219 12.579 39.3489 12.7095 39.3669C13.0158 39.3723 13.3588 39.5111 13.6592 39.6258C13.981 39.7525 14.3027 39.8792 14.591 40.0151C15.2103 40.3111 15.7933 40.6708 16.3067 41.1035C16.24 41.1218 16.1946 41.1522 16.1279 41.1706C16.2802 39.9633 16.2686 38.7472 16.4755 37.5428C16.5088 37.5336 16.5968 37.5274 16.5938 37.582Z" fill="#C88868"/>
</g>
<defs>
<clipPath id="clip0_1988_7338">
<rect width="25.6973" height="52.0548" fill="white" transform="matrix(-0.86923 -0.494409 -0.494409 0.86923 48.2474 12.8906)"/>
</clipPath>
</defs>
</svg>
