<svg width="20" height="20" viewBox="0 0 20 20" fill="none" xmlns="http://www.w3.org/2000/svg">
<path fillRule="evenodd" clipRule="evenodd" d="M19.6996 0.300403C20.1001 0.700941 20.1001 1.35034 19.6996 1.75088L1.75088 19.6996C1.35034 20.1001 0.700941 20.1001 0.300403 19.6996C-0.100134 19.2991 -0.100134 18.6497 0.300403 18.2491L18.2491 0.300403C18.6497 -0.100134 19.2991 -0.100134 19.6996 0.300403Z" fill="#72726C"/>
<path fillRule="evenodd" clipRule="evenodd" d="M0.300403 0.300403C0.700941 -0.100134 1.35034 -0.100134 1.75088 0.300403L19.6996 18.2491C20.1001 18.6497 20.1001 19.2991 19.6996 19.6996C19.2991 20.1001 18.6497 20.1001 18.2491 19.6996L0.300403 1.75088C-0.100134 1.35034 -0.100134 0.700941 0.300403 0.300403Z" fill="#72726C"/>
</svg>
