<svg width="50" height="50" viewBox="0 0 50 50" fill="none" xmlns="http://www.w3.org/2000/svg">
<path d="M48.2151 24.7139C48.1806 28.6823 47.2786 32.5951 45.5723 36.1782" stroke="#0F0F0F" strokeWidth="1.5" strokeLinecap="round" strokeLinejoin="round"/>
<path d="M25.0004 47.9282C21.9519 47.9282 18.9332 47.3277 16.1167 46.1611C13.3002 44.9944 10.7411 43.2845 8.58544 41.1288C4.23192 36.7753 1.78613 30.8707 1.78613 24.7139" stroke="#0F0F0F" strokeWidth="1.5" strokeLinecap="round" strokeLinejoin="round"/>
<path d="M32.1433 31.8573L25.0004 22.9287H14.2861" stroke="#0F0F0F" strokeWidth="1.5" strokeLinecap="round" strokeLinejoin="round"/>
<path d="M42.8571 46.143C45.8158 46.143 48.2143 43.7445 48.2143 40.7859C48.2143 37.8272 45.8158 35.4287 42.8571 35.4287C39.8985 35.4287 37.5 37.8272 37.5 40.7859C37.5 43.7445 39.8985 46.143 42.8571 46.143Z" stroke="#0F0F0F" strokeWidth="1.5" strokeLinecap="round" strokeLinejoin="round"/>
<path d="M3.28613 16.1424C4.06447 14.1973 5.11025 12.3702 6.39328 10.7139" stroke="#0F0F0F" strokeWidth="1.5" strokeLinecap="round" strokeLinejoin="round"/>
<path d="M13.2861 4.57129C15.2988 3.40909 17.4795 2.56575 19.7504 2.07129" stroke="#0F0F0F" strokeWidth="1.5" strokeLinecap="round" strokeLinejoin="round"/>
<path d="M46.7146 16.1424C45.9362 14.1973 44.8904 12.3702 43.6074 10.7139" stroke="#0F0F0F" strokeWidth="1.5" strokeLinecap="round" strokeLinejoin="round"/>
<path d="M36.7143 4.57129C34.7016 3.40909 32.5209 2.56575 30.25 2.07129" stroke="#0F0F0F" strokeWidth="1.5" strokeLinecap="round" strokeLinejoin="round"/>
</svg>
