<svg width="49" height="49" viewBox="0 0 49 49" fill="none" xmlns="http://www.w3.org/2000/svg">
<g clipPath="url(#clip0_1074_245)">
<path d="M18.9031 2.40423L18.7863 2.17941C14.6346 3.24645 10.832 5.45814 7.82503 8.61067L7.73937 8.70047L7.8251 8.7902C9.27993 10.3129 10.9193 11.6226 12.7046 12.6802L12.8468 12.7644L12.8952 12.6063C14.2604 8.14537 16.3719 4.56287 18.9031 2.40423ZM6.9615 9.78714L6.86077 9.68221L6.76777 9.79404C3.50838 13.7131 1.64586 18.5925 1.47126 23.7046L1.46667 23.8391H1.60118H11.0829H11.2107L11.2129 23.7113C11.2706 20.3161 11.713 17.0853 12.4627 14.173L12.4875 14.0766L12.401 14.0275C10.4058 12.8956 8.57342 11.4662 6.9615 9.78714ZM6.76789 39.2061L6.86064 39.3173L6.96123 39.2131C8.58276 37.534 10.4154 36.114 12.4016 34.9722L12.4874 34.9228L12.4627 34.827C11.713 31.9147 11.2706 28.6936 11.2129 25.2887L11.2107 25.1609H11.0829H1.60118H1.46667L1.47126 25.2954C1.64586 30.4073 3.49865 35.2869 6.76789 39.2061ZM7.8251 40.2194L7.73924 40.3093L7.82516 40.3991C10.8321 43.5419 14.6345 45.7535 18.7861 46.8302L18.9031 46.6054C16.372 44.4468 14.2604 40.8547 12.8952 36.4032L12.8467 36.2453L12.7046 36.3295C10.9193 37.3871 9.27993 38.6967 7.8251 40.2194ZM23.6927 47.4892L23.8391 47.5078V47.3602V33.21V33.0751L23.7042 33.0801C20.3386 33.2062 17.06 34.0501 14.0915 35.5537L13.9953 35.6024L14.0254 35.7059C14.9837 39.0068 16.3528 41.816 18.0036 43.868C19.6541 45.9195 21.5939 47.2232 23.6927 47.4892ZM23.7134 31.7677L23.8391 31.7636V31.6378V25.2909V25.1609H23.7091H12.6551H12.5227L12.5251 25.2933C12.5832 28.4468 12.9701 31.4367 13.6186 34.147L13.6564 34.3048L13.8022 34.2335C16.8628 32.7368 20.2401 31.8829 23.7134 31.7677ZM23.7091 23.8391H23.8391V23.7091V17.3622V17.2365L23.7134 17.2323C20.2498 17.1171 16.8724 16.2632 13.802 14.7664L13.6564 14.6954L13.6186 14.853C12.9701 17.5633 12.5832 20.5532 12.5251 23.7067L12.5227 23.8391H12.6551H23.7091ZM23.7046 15.9199L23.8391 15.9245V15.79V1.63976V1.49224L23.6927 1.5108C21.594 1.77683 19.6541 3.078 18.0037 5.12835C16.3528 7.17919 14.9837 9.98841 14.0253 13.2941L13.9953 13.3976L14.0915 13.4463C17.0597 14.9498 20.3288 15.8035 23.7046 15.9199ZM42.2322 9.79404L42.1392 9.68221L42.0385 9.78714C40.4268 11.466 38.5943 12.886 36.608 14.0278L36.5223 14.0772L36.5469 14.173C37.2966 17.0853 37.7391 20.3064 37.7968 23.7113L37.799 23.8391H37.9268H47.3988H47.5333L47.5287 23.7046C47.3541 18.5925 45.4916 13.7131 42.2322 9.79404ZM41.1749 8.78055L41.2608 8.69068L41.1748 8.60088C38.1679 5.4581 34.3655 3.24652 30.2139 2.16983L30.0967 2.3944C32.6281 4.56279 34.7397 8.14548 36.1048 12.5968L36.1533 12.7547L36.2954 12.6705C38.0807 11.6129 39.7201 10.3033 41.1749 8.78055ZM25.3073 1.5108L25.1609 1.49224V1.63976V15.79V15.9249L25.2958 15.9199C28.6711 15.7938 31.9401 14.9499 34.9085 13.4463L35.0047 13.3976L34.9746 13.2941C34.0163 9.9932 32.6472 7.18402 30.9964 5.132C29.3459 3.0805 27.4061 1.77684 25.3073 1.5108ZM25.2866 17.2323L25.1609 17.2364V17.3622V23.7091V23.8391H25.2909H36.3449H36.4773L36.4749 23.7067C36.4168 20.5532 36.0299 17.5633 35.3814 14.853L35.3436 14.6952L35.1978 14.7665C32.1372 16.2632 28.7599 17.1171 25.2866 17.2323ZM25.2909 25.1609H25.1609V25.2909V31.6378V31.7639L25.287 31.7677C28.76 31.8733 32.1371 32.7271 35.1975 34.2334L35.3435 34.3052L35.3814 34.147C36.0299 31.4367 36.4168 28.4468 36.4749 25.2933L36.4773 25.1609H36.3449H25.2909ZM25.1609 47.3602V47.5078L25.3073 47.4892C27.406 47.2232 29.3459 45.922 30.9963 43.8717C32.6472 41.8208 34.0163 39.0116 34.9747 35.7059L35.0047 35.6024L34.9085 35.5537C31.9403 34.0502 28.6712 33.1965 25.2954 33.0801L25.1609 33.0755V33.21V47.3602ZM30.0969 46.5958L30.2137 46.8206C34.3654 45.7535 38.168 43.5419 41.175 40.3893L41.2606 40.2995L41.1749 40.2098C39.7201 38.6871 38.0807 37.3774 36.2954 36.3198L36.1532 36.2356L36.1048 36.3937C34.7396 40.8546 32.6281 44.4371 30.0969 46.5958ZM42.0385 39.2129L42.1392 39.3178L42.2322 39.206C45.4916 35.2869 47.3541 30.4075 47.5287 25.2954L47.5333 25.1609H47.3988H37.9268H37.799L37.7968 25.2887C37.7391 28.6839 37.2966 31.9147 36.5469 34.827L36.5223 34.9228L36.608 34.9722C38.5943 36.114 40.4268 37.534 42.0385 39.2129ZM0.13 24.5C0.13 7.91524 14.1993 0.13 24.5 0.13C39.7343 0.13 48.87 12.5608 48.87 24.5C48.87 28.5408 47.4232 34.6379 43.652 39.7218C39.885 44.7999 33.7976 48.87 24.5 48.87C13.6626 48.87 0.13 40.6634 0.13 24.5Z" fill="black" stroke="white" strokeWidth="0.26"/>
</g>
<defs>
<clipPath id="clip0_1074_245">
<rect width="49" height="49" fill="white"/>
</clipPath>
</defs>
</svg>
