<svg width="50" height="50" viewBox="0 0 50 50" fill="none" xmlns="http://www.w3.org/2000/svg">
<path d="M42.8576 26.7866V19.6437C42.8576 18.6965 42.4813 17.7881 41.8115 17.1183C41.1417 16.4485 40.2333 16.0723 39.2861 16.0723H5.35756C4.41036 16.0723 3.50195 16.4485 2.83218 17.1183C2.16241 17.7881 1.78613 18.6965 1.78613 19.6437V44.6437C1.78613 45.5909 2.16241 46.4993 2.83218 47.1691C3.50195 47.8388 4.41036 48.2151 5.35756 48.2151H39.2861C40.2333 48.2151 41.1417 47.8388 41.8115 47.1691C42.4813 46.4993 42.8576 45.5909 42.8576 44.6437V35.7151" stroke="#0F0F0F" strokeWidth="1.5" strokeLinecap="round" strokeLinejoin="round"/>
<path d="M13.7148 7.14329L33.9648 1.85758C34.1924 1.79346 34.4306 1.77612 34.665 1.80659C34.8995 1.83706 35.1253 1.91472 35.3289 2.03488C35.5325 2.15504 35.7096 2.3152 35.8496 2.5057C35.9896 2.6962 36.0896 2.9131 36.1434 3.14329L37.1434 7.14329" stroke="#0F0F0F" strokeWidth="1.5" strokeLinecap="round" strokeLinejoin="round"/>
<path d="M46.4291 26.7861H37.5006C36.5143 26.7861 35.7148 27.5856 35.7148 28.5718V33.929C35.7148 34.9152 36.5143 35.7147 37.5006 35.7147H46.4291C47.4154 35.7147 48.2148 34.9152 48.2148 33.929V28.5718C48.2148 27.5856 47.4154 26.7861 46.4291 26.7861Z" stroke="#0F0F0F" strokeWidth="1.5" strokeLinecap="round" strokeLinejoin="round"/>
</svg>
