<svg width="50" height="50" viewBox="0 0 50 50" fill="none" xmlns="http://www.w3.org/2000/svg">
<path d="M40.3933 14.8213C40.3933 11.2499 40.3933 7.67847 40.1433 5.32133C40.1452 4.74363 40.0069 4.1741 39.7403 3.6616C39.4737 3.14909 39.0868 2.7089 38.6127 2.37879C38.1386 2.04868 37.5915 1.83851 37.0183 1.76629C36.4452 1.69408 35.863 1.76199 35.3219 1.96418C27.6076 4.17847 11.8576 9.71418 5.25044 19.2142C-1.89241 29.2856 3.60759 40.8213 6.21473 45.3213C6.59459 45.9574 7.11296 46.4996 7.73128 46.9077C8.34961 47.3158 9.05198 47.5793 9.78616 47.6785C13.0746 48.2712 16.4334 48.3675 19.7504 47.9642" stroke="#0F0F0F" strokeWidth="1.5" strokeLinecap="round" strokeLinejoin="round"/>
<path d="M17.8573 30.6426C14.262 35.9409 10.9479 41.4246 7.92871 47.0712" stroke="#0F0F0F" strokeWidth="1.5" strokeLinecap="round" strokeLinejoin="round"/>
<path d="M38.1076 48.1067C37.7152 48.2485 37.2856 48.2485 36.8933 48.1067C33.9148 46.9267 31.3591 44.8798 29.5571 42.231C27.7551 39.5821 26.7898 36.4532 26.7861 33.2495V26.6424C26.7905 26.4157 26.8407 26.1922 26.9339 25.9854C27.027 25.7786 27.161 25.5929 27.3279 25.4394C27.4948 25.2858 27.6911 25.1677 27.9049 25.0921C28.1186 25.0165 28.3455 24.985 28.5718 24.9995H46.429C46.8618 25.0087 47.2744 25.1847 47.5806 25.4908C47.8867 25.7969 48.0627 26.2095 48.0718 26.6424V33.2495C48.0797 36.4368 47.1354 39.5537 45.3601 42.2008C43.5848 44.8478 41.0593 46.9044 38.1076 48.1067Z" stroke="#0F0F0F" strokeWidth="1.5" strokeLinecap="round" strokeLinejoin="round"/>
</svg>
