<svg width="50" height="50" viewBox="0 0 50 50" fill="none" xmlns="http://www.w3.org/2000/svg">
<path d="M1.78613 30.3574H8.92899C11.297 30.3574 13.568 31.2981 15.2424 32.9725C16.9169 34.647 17.8576 36.918 17.8576 39.286" stroke="black" strokeWidth="1.5" strokeLinecap="round" strokeLinejoin="round"/>
<path d="M7.14328 39.2861H25.0004C26.8948 39.2861 28.7116 40.0387 30.0512 41.3782C31.3907 42.7178 32.1433 44.5346 32.1433 46.429C32.1433 46.9026 31.9551 47.3568 31.6203 47.6917C31.2854 48.0266 30.8312 48.2147 30.3576 48.2147H1.78613" stroke="black" strokeWidth="1.5" strokeLinecap="round" strokeLinejoin="round"/>
<path d="M31.2503 30.357L16.9646 17.1427C9.17887 9.3213 20.536 -5.82155 31.2503 6.42845C41.9646 -5.78584 53.4289 9.35702 45.536 17.1427L31.2503 30.357Z" stroke="black" strokeWidth="1.5" strokeLinecap="round" strokeLinejoin="round"/>
</svg>
