<svg width="254" height="328" viewBox="0 0 254 328" fill="none" xmlns="http://www.w3.org/2000/svg">
<g clipPath="url(#clip0_1_2343)">
<path d="M171.175 116.056C159.369 123.125 150.689 134.54 143.737 146.205C136.014 159.286 129.726 173.362 124.163 187.507C121.198 195.045 118.42 202.656 116.05 210.321C113.551 218.042 111.331 225.872 108.366 233.41C103.462 245.881 96.0615 257.047 86.2919 266.314C81.028 271.229 75.2225 275.608 69.0782 279.209C66.006 281.009 62.914 282.587 59.6725 283.999C56.3013 285.467 52.9469 286.619 49.5192 287.957C48.7412 288.296 49.0831 289.613 49.9176 289.403C56.2239 288.123 62.318 285.469 67.9269 282.41C73.4992 279.443 78.7892 275.828 83.7237 271.752C93.4996 263.561 101.574 253.412 107.303 242.126C110.845 235.03 113.401 227.439 115.827 219.904C118.326 212.183 120.696 204.518 123.474 196.907C128.941 182.187 135.153 167.759 142.444 153.864C146.137 146.934 150.201 140.151 155.03 133.884C159.896 127.523 165.545 121.901 171.793 116.944C171.94 116.571 171.601 115.793 171.175 116.056Z" fill="#C88868"/>
<path d="M173.03 214.892C150.747 221.28 129.508 231.839 110.383 244.949C105.056 248.657 99.4705 252.477 94.7985 256.98C93.9672 257.728 94.9773 258.984 95.865 258.366C100.693 255.107 105.129 251.479 109.9 248.09C114.635 244.794 119.462 241.535 124.403 238.535C134.155 232.592 144.468 227.407 154.914 222.704C160.915 220.014 167.029 217.583 173.107 215.245C173.423 215.261 173.29 214.779 173.03 214.892Z" fill="#C88868"/>
<path d="M128.401 178.643C131.215 173.947 135.657 171.395 140.677 169.286C145.567 167.234 150.534 165.534 154.674 162.111C158.611 158.932 161.707 154.884 163.723 150.304C165.886 145.352 166.932 139.961 167.848 134.626C168.907 128.38 169.93 122.228 172.738 116.455C173.05 115.933 172.452 115.268 171.784 115.328C161.472 117.504 152.368 123.165 144.684 130.136C136.537 137.463 129.2 146.828 127.631 157.923C126.828 163.517 127.474 169.252 129.955 174.418C130.443 175.362 131.999 174.685 131.511 173.741C127.186 164.518 129.185 153.699 134.224 145.257C139.539 136.387 147.759 128.874 156.473 123.383C161.285 120.44 166.508 118.088 172.109 116.96C171.81 116.627 171.548 116.202 171.156 115.833C166.162 125.796 166.73 137.195 162.797 147.468C160.987 152.344 157.967 156.744 153.92 160.203C149.744 163.719 144.833 165.548 139.813 167.657C134.923 169.71 129.277 172.862 127.693 178.257C127.733 178.702 128.254 179.015 128.401 178.643Z" fill="#C88868"/>
<path d="M126.442 10.671C128.144 19.1847 130.607 27.6754 132.532 36.1692C134.514 44.7927 136.179 53.3994 137.363 62.1389C139.803 79.4319 140.74 96.9935 138.872 114.311C137.815 124.104 135.997 133.919 133.247 143.369C132.974 144.336 134.37 144.885 134.643 143.918C140.061 127.136 142.132 109.576 141.862 91.9546C141.666 74.1472 139.02 56.5584 135.094 39.2183C132.884 29.5377 130.58 19.8205 127.017 10.5748C126.811 10.2789 126.422 10.4483 126.442 10.671Z" fill="#C88868"/>
<path d="M95.0165 80.1931C96.4386 82.0418 98.4159 83.5716 100.134 85.2144C101.908 86.9868 103.59 88.7226 105.234 90.5515C108.56 94.1161 111.554 97.9799 114.418 101.9C120.073 109.927 124.71 118.627 127.958 127.856C129.807 132.99 131.361 138.329 132.469 143.707C132.718 144.987 134.666 144.679 134.417 143.399C130.924 123.865 121.53 105.127 107.89 90.6289C106.003 88.5972 103.986 86.6219 101.839 84.7031C99.8421 82.9506 97.7321 80.9387 95.2926 79.7644C95.0134 79.6546 94.867 80.0268 95.0165 80.1931Z" fill="#C88868"/>
<path d="M193.155 169.186C190.073 169.372 187.015 170.318 184.122 171.114C181.36 171.855 178.617 172.818 175.967 173.817C170.409 175.929 164.89 178.487 159.763 181.414C148.694 187.699 138.583 195.65 129.199 204.209C123.806 209.18 118.562 214.317 113.374 219.584C112.506 220.425 114.038 221.994 114.942 221.06C132.48 203.243 151.564 186.141 174.717 175.904C177.699 174.606 180.644 173.4 183.74 172.361C186.964 171.265 190.229 170.615 193.361 169.482C193.547 169.556 193.377 169.167 193.155 169.186Z" fill="#C88868"/>
<path d="M66.463 132.577C69.3604 135.866 72.72 138.799 75.5808 142.181C78.4782 145.469 81.2093 148.908 83.6446 152.552C88.7378 159.82 92.8135 167.763 95.8886 176.064C102.397 193.668 103.753 212.898 100.183 231.266C98.0914 242.049 94.215 252.452 88.7366 262.01C88.1113 263.054 89.6034 264.178 90.2287 263.134C100.064 246.048 104.852 226.225 104.031 206.453C103.237 187.981 97.3202 169.965 87.184 154.481C84.4299 150.282 81.3798 146.288 77.9972 142.594C74.6147 138.9 70.9895 135.002 66.7589 132.371C66.5895 131.982 66.257 132.282 66.463 132.577Z" fill="#C88868"/>
<path d="M74.9815 208.461C75.3631 210.222 76.3564 211.795 77.127 213.388C78.0472 215.146 78.8742 216.869 79.7013 218.591C81.3189 222.128 82.8433 225.629 84.1649 229.373C86.7883 236.637 89.006 244.386 89.0696 252.148C89.1511 256.586 88.4148 260.917 86.4887 264.995C85.8832 266.261 87.8741 266.936 88.443 265.763C92.152 258.518 91.6566 249.942 90.0705 242.226C88.4279 234.38 85.8014 226.578 82.1941 219.356C81.1611 217.338 80.0914 215.413 79.0218 213.488C78.0086 211.693 76.8824 209.638 75.1478 208.311C75.1478 208.311 75.0181 208.367 74.9815 208.461Z" fill="#C88868"/>
<path d="M177.074 28.6496C173.67 30.7491 170.547 33.497 167.555 36.1885C164.692 38.8234 161.885 41.5881 159.358 44.4625C154.007 50.4173 149.291 56.9441 145.339 63.9865C143.171 67.8616 141.022 71.9594 139.561 76.2204C139.158 77.2441 140.591 77.7 141.05 76.806C144.686 69.7469 148.155 62.8374 152.649 56.3304C157.142 49.8235 162.12 43.7222 167.677 38.0633C170.816 34.9996 174.198 32.1388 177.43 29.1117C177.633 28.8692 177.334 28.5366 177.074 28.6496Z" fill="#C88868"/>
<path d="M136.263 51.821C141.89 45.4375 145.809 36.0184 143.791 27.488C142.991 24.0572 141.264 20.7989 138.502 18.5309C136.655 16.9446 134.401 15.8435 132.387 14.4067C130.373 12.97 128.656 11.3272 127.084 9.31222C126.635 8.81343 126.024 9.00268 125.711 9.52445C121.816 16.6965 120.307 25.4516 122.451 33.3871C124.35 40.5811 128.991 46.8122 135.678 50.3017C136.758 50.834 137.324 49.1222 136.337 48.6266C130.079 45.4132 125.531 39.2187 123.894 32.4502C122.049 24.8473 123.637 16.983 127.2 10.11C126.755 10.1498 126.273 10.2826 125.827 10.3223C127.229 11.9483 128.668 13.4812 130.403 14.8082C132.137 16.1352 134.112 17.1265 135.919 18.2673C139.256 20.4392 141.465 23.5647 142.435 27.3844C143.497 31.2408 143.186 35.3094 142.002 39.1417C140.561 43.6254 137.983 47.4471 135.685 51.3787C135.408 51.8074 135.894 52.2131 136.263 51.821Z" fill="#C88868"/>
<path d="M143.806 68.4332C150.234 69.0273 157.196 65.5329 161.945 61.3828C164.402 59.233 166.597 56.6576 168.27 53.7696C170.256 50.3598 171.404 46.6206 172.329 42.9012C173.564 38.1216 174.706 33.3054 177.43 29.1114C177.779 28.4966 177.255 27.6454 176.57 28.0208C169.219 31.6845 161.383 34.9426 154.576 39.6803C148.731 43.6139 143.879 49.1201 142.62 56.1469C141.99 59.6602 142.272 63.3168 143.906 66.5385C144.338 67.3531 145.727 66.825 145.203 65.9739C142.402 60.252 143.997 53.4648 147.589 48.4301C151.733 42.538 158.416 38.9338 164.73 35.7217C168.896 33.5991 172.932 31.533 177.098 29.4104C176.799 29.0779 176.536 28.6523 176.237 28.3198C171.484 34.9397 171.292 43.3529 168.028 50.5584C165.24 56.5541 160.329 61.3922 154.404 64.4349C151.09 66.0326 147.473 66.7592 143.783 67.672C143.43 67.7483 143.397 68.3799 143.806 68.4332Z" fill="#C88868"/>
<path d="M178.151 57.3328C165.132 69.943 154.43 84.861 146.017 100.787C143.592 105.314 141.094 110.026 139.377 114.939C139.068 115.999 140.464 116.548 140.959 115.561C143.071 111.556 144.812 107.405 146.831 103.364C148.943 99.3588 151.112 95.4837 153.41 91.5521C158.027 83.9117 163.109 76.4542 168.639 69.4956C171.829 65.4845 175.111 61.5101 178.45 57.6654C178.746 57.4594 178.354 57.0902 178.151 57.3328Z" fill="#C88868"/>
<path d="M146.922 99.8549C153.464 97.7 160.054 94.0592 165.321 89.6833C171.18 84.8954 174.875 78.5045 176.876 71.2321C178.094 66.7682 178.754 62.0848 179.377 57.4944C179.504 56.8995 178.833 56.4206 178.314 56.6464C171.053 59.8083 164.26 63.6917 158.029 68.3331C155.126 70.5227 152.337 72.9715 150.461 76.1021C148.658 79.0466 147.6 82.2839 147.136 85.6478C146.583 89.5135 146.941 93.5225 147.946 97.2492C148.023 97.6016 148.265 97.8045 148.638 97.9509C161.405 99.6409 174.467 94.5698 183.047 85.0494C185.501 82.3611 187.434 79.3601 188.937 76.0831C189.047 75.8039 188.914 75.3219 188.598 75.3051C184.005 74.1433 179.195 74.0784 174.521 75.034C173.593 75.2065 173.769 76.6725 174.697 76.5C179.241 75.6008 183.699 75.7421 188.216 76.5515C188.01 76.2556 187.897 75.9963 187.691 75.7004C182.594 87.0204 171.256 94.8113 159.159 96.6085C155.745 97.0925 152.198 97.0946 148.741 96.5947C148.984 96.7975 149.226 97.0004 149.432 97.2963C147.248 88.9154 148.661 79.5851 155.012 73.2717C158.225 70.0219 162.258 67.4173 166.088 65.0552C170.178 62.5803 174.417 60.2716 178.825 58.3519C178.49 58.1124 178.061 57.8363 177.762 57.5038C176.389 67.2795 174.776 77.3909 168.005 85.0438C165.145 88.2173 161.651 90.8188 157.987 93.0313C154.286 95.3369 150.267 97.0872 146.566 99.3928C146.028 99.3959 146.476 99.8947 146.922 99.8549Z" fill="#C88868"/>
<path d="M187.725 75.069C186.91 75.5009 186.172 76.2851 185.507 76.8832C184.712 77.5377 183.861 78.0626 183.103 78.6241C181.105 79.8799 179.106 81.1357 177.052 82.2618C175.09 83.4245 173.072 84.4576 171.054 85.4906C170.11 85.9789 169.036 86.5237 168.091 87.012C167.147 87.5003 166.053 87.8223 165.315 88.6065C164.983 88.9056 165.375 89.2747 165.691 89.2914C166.768 89.2852 167.785 88.6107 168.729 88.1225C169.803 87.5777 170.97 87.0695 172.081 86.4317C174.228 85.3422 176.32 84.123 178.411 82.9038C180.336 81.8342 182.168 80.7279 184.073 79.4356C185.423 78.4621 187.717 77.0003 188.097 75.2154C188.04 75.0858 187.854 75.0126 187.725 75.069Z" fill="#C88868"/>
<path d="M134.279 49.2142C134.243 49.3073 134.243 49.3073 134.206 49.4003L134.169 49.4934C134.169 49.4934 134.169 49.4934 134.133 49.5865C134.133 49.5865 134.096 49.6795 134.189 49.7161L134.282 49.7527L134.319 49.6597L134.355 49.5666C134.392 49.4735 134.392 49.4735 134.429 49.3805L134.465 49.2874L134.372 49.2508C134.409 49.1577 134.279 49.2142 134.279 49.2142Z" fill="#C88868"/>
<path d="M135.881 50.059C130.052 53.6768 122.929 51.8426 117.948 47.8418C112.053 43.1593 108.429 36.2538 103.365 30.8237C103.145 31.382 102.962 31.8473 102.743 32.4057C109.385 31.3644 116.089 31.5297 122.651 32.6058C123.747 32.8223 123.904 31.0573 122.807 30.8408C116.097 29.5984 109.169 29.4529 102.341 30.4211C101.673 30.4806 101.307 31.4113 101.755 31.91C107.231 37.932 111.194 45.6155 118.13 50.3849C123.48 53.9935 131.345 55.582 136.628 50.8903C137.127 50.4417 136.473 49.647 135.881 50.059Z" fill="#C88868"/>
<path d="M102.441 31.5339C103.73 32.9006 105.777 33.7058 107.509 34.4943C109.39 35.449 111.344 36.2176 113.392 37.0228C117.3 38.56 121.375 39.9476 125.483 40.7037C126.172 40.8668 126.554 39.6204 125.773 39.4207C121.682 38.3488 117.683 37.3136 113.868 35.813C112.006 35.081 110.052 34.3124 108.264 33.3943C106.532 32.6058 104.761 31.3719 102.883 30.9557C102.494 31.1251 102.291 31.3677 102.441 31.5339Z" fill="#C88868"/>
<path d="M128.836 125.624C132.522 117.617 133.264 107.808 130.059 99.5629C128.644 95.7829 126.452 92.3416 123.464 89.5549C120.085 86.3991 115.914 84.4363 111.45 83.2181C106.019 81.7268 100.332 80.8871 95.413 78.093C94.612 77.6705 93.7974 78.1024 93.8403 79.0863C94.1496 87.5895 96.9821 95.6881 99.7581 103.657C100.987 107.364 102.475 110.958 104.518 114.233C106.71 117.674 109.734 120.368 113.403 122.241C117.817 124.406 122.706 125.362 127.41 126.245C128.6 126.498 128.793 124.64 127.603 124.386C119.646 122.761 111.333 120.674 106.446 113.702C104.236 110.576 102.842 107.019 101.67 103.442C100.348 99.6982 99.0263 95.9548 97.964 92.0984C96.769 87.76 95.8698 83.2156 95.6953 78.7413C95.14 79.0602 94.6778 79.4157 94.1226 79.7346C102.079 84.3681 112.158 83.6039 119.858 88.8888C126.793 93.6581 130.204 102.199 130.308 110.406C130.356 115.476 129.14 120.478 127.739 125.407C127.779 125.853 128.616 126.182 128.836 125.624Z" fill="#C88868"/>
<path d="M133.049 202.069C137.833 200.835 142.184 201.794 146.924 202.583C151.534 203.429 155.992 203.57 160.477 202.003C169.742 198.662 175.915 190.345 181.758 182.864C185.592 178.032 189.557 173.144 194.68 169.679C195.272 169.267 194.877 168.359 194.282 168.233C185.042 166.318 175.196 165.669 165.868 167.803C161.509 168.776 157.211 170.416 153.287 172.742C148.772 175.479 145.061 179.177 142.021 183.355C138.3 188.446 135.622 194.162 132.98 199.786C132.485 200.773 134.103 201.302 134.469 200.371C139.02 190.986 143.94 181.208 152.781 175.121C160.309 169.915 169.677 168.227 178.665 168.323C183.791 168.405 188.956 168.932 193.939 169.924C193.806 169.442 193.673 168.96 193.541 168.478C184.736 174.472 179.647 183.861 172.411 191.33C169.162 194.673 165.484 197.74 161.205 199.603C156.667 201.58 152.137 201.624 147.36 200.928C142.713 200.175 137.079 198.926 132.767 201.421C132.508 201.534 132.567 202.202 133.049 202.069Z" fill="#C88868"/>
<path d="M107.374 247.956C110.312 248.681 113.267 249.091 116.222 249.501C118.954 249.931 121.686 250.361 124.492 250.605C129.471 251.059 134.371 250.622 139.132 248.626C147.912 244.879 154.424 237.339 160.865 230.524C165.627 225.519 170.332 220.385 175.188 215.418C175.686 214.969 175.125 214.211 174.623 214.121C163.804 212.123 152.469 210.888 141.601 213.384C136.891 214.433 132.333 216.186 128.243 218.661C123.728 221.399 120.017 225.097 116.997 229.497C113.129 234.96 109.803 240.959 106.792 246.975C106.26 248.055 107.935 248.714 108.56 247.67C111.242 242.492 114.109 237.387 117.275 232.615C120.165 228.272 123.448 224.297 127.85 221.3C136.099 215.626 146.302 213.728 156.108 213.931C162.31 214.007 168.407 214.9 174.522 216.016C174.353 215.627 174.127 215.108 173.958 214.719C169.934 218.939 165.91 223.159 161.757 227.436C158.269 231.115 154.78 234.793 151.142 238.305C147.874 241.425 144.269 244.306 140.233 246.372C135.808 248.608 131.114 249.341 126.154 249.109C119.932 248.811 113.926 247.416 107.703 247.118C106.736 246.845 106.686 247.793 107.374 247.956Z" fill="#C88868"/>
<path d="M101.993 200.707C110.037 191.729 113.416 178.766 112.493 166.905C112.03 160.705 110.49 154.512 107.58 149.069C106.115 146.237 104.317 143.703 101.965 141.488C99.3695 139.071 96.2588 137.417 92.9284 136.323C88.9466 134.972 84.8383 134.215 80.73 133.459C76.3425 132.593 71.8818 131.914 67.4409 131.457C66.939 131.367 66.3472 131.779 66.3503 132.317C66.5927 142.084 66.8549 152.073 69.8432 161.414C71.3938 166.215 73.5927 170.733 76.6427 174.727C80.0483 179.182 84.0457 183.226 88.0233 187.047C90.469 189.298 92.9147 191.549 95.4336 193.615C97.6169 195.44 99.8001 197.266 100.8 199.916C101.215 201.046 102.9 200.312 102.485 199.182C101.712 197.051 100.309 195.425 98.6479 193.912C96.6874 192.066 94.4309 190.426 92.4704 188.581C88.2701 184.78 84.143 180.793 80.5346 176.58C77.1687 172.57 74.3581 168.241 72.5649 163.237C70.9046 158.716 69.9855 153.949 69.3823 149.198C68.7561 143.687 68.5753 138.135 68.4311 132.491C68.0986 132.79 67.673 133.052 67.3405 133.351C74.6433 134.182 82.0224 135.365 89.2383 137.235C92.5488 138.108 95.9722 139.239 98.7505 141.191C101.343 143.07 103.456 145.621 105.087 148.304C111.106 158.408 112.202 171.196 109.389 182.447C107.755 188.789 104.91 194.655 101.172 200.062C100.823 200.677 101.587 201.193 101.993 200.707Z" fill="#C88868"/>
<path d="M90.6065 248.239C94.4609 243.63 96.1686 237.102 95.6323 231.089C95.3176 228.064 94.3912 225.228 92.8165 222.674C91.0358 219.825 88.404 217.5 85.792 215.399C82.6018 212.854 79.2453 210.46 76.5905 207.374C76.0855 206.746 75.1779 207.141 75.0147 207.829C73.2035 215.713 73.2336 224.106 75.9898 231.853C78.6132 239.117 83.7001 245.308 90.5364 248.964C91.5235 249.46 92.1457 247.878 91.1586 247.382C84.6945 243.873 79.8303 237.661 77.4694 230.823C74.9757 223.502 74.9853 215.554 76.7432 208.079C76.2611 208.212 75.6494 208.401 75.1674 208.534C80.5335 214.835 89.3545 218.089 92.7621 226.092C95.8873 233.446 93.5376 241.333 89.9551 247.983C89.7522 248.226 90.3671 248.575 90.6065 248.239Z" fill="#C88868"/>
<path d="M128.56 126.052C126.742 126.304 125 126.909 123.201 127.383C121.439 127.765 119.584 128.11 117.766 128.362C113.943 128.793 110.08 128.778 106.288 128.039C102.402 127.263 98.7163 125.706 95.5825 123.291C92.5983 121.043 90.3157 118.103 88.2925 115.051C85.9702 111.666 83.9438 108.076 81.4552 104.84C81.2722 105.306 81.0892 105.771 80.9062 106.236C87.5649 104.879 94.2466 104.283 101.064 104.708C102.105 104.795 102.281 103.252 101.241 103.166C94.3303 102.704 87.406 103.097 80.6177 104.511C79.9129 104.664 79.6201 105.408 80.0687 105.907C84.6903 111.915 87.8156 119.269 93.7307 124.175C99.925 129.19 108.255 130.961 116.086 130.173C118.314 129.974 120.428 129.516 122.579 128.965C124.637 128.378 126.881 127.863 128.713 126.757C129.045 126.458 128.912 125.976 128.56 126.052Z" fill="#C88868"/>
<path d="M80.7365 105.847C82.3583 106.915 84.4224 107.404 86.3202 108.043C88.4042 108.756 90.4881 109.468 92.6285 110.309C96.7599 111.827 100.762 113.401 104.783 115.197C105.714 115.563 106.299 114.074 105.369 113.708C101.347 111.912 97.3454 110.338 93.2141 108.82C91.2232 108.145 89.1393 107.433 87.1484 106.757C85.2506 106.118 83.1101 105.277 80.9561 105.289C80.6769 105.179 80.4009 105.608 80.7365 105.847Z" fill="#C88868"/>
<path d="M103.173 199.345C97.7681 199.153 92.3998 198.869 87.0817 197.637C81.6705 196.368 76.4956 194.226 71.8363 191.319C63.375 186.057 56.59 178.446 52.3783 169.482C50.0467 164.482 48.4929 159.143 47.7737 153.595C47.3115 153.95 46.8493 154.306 46.3871 154.661C53.9021 156.864 61.7831 158.137 69.7112 157.924C70.5655 157.938 70.5195 156.415 69.6652 156.401C62.0132 156.186 54.4678 155.153 47.0825 152.893C46.3014 152.693 45.673 153.198 45.696 153.959C48.2145 175.152 63.7147 193.39 84.5083 198.989C90.4413 200.57 96.9828 201.423 103.159 200.199C103.585 199.937 103.619 199.305 103.173 199.345Z" fill="#C88868"/>
<path d="M47.4477 154.972C49.7899 158.58 53.1129 161.606 56.2498 164.559C59.3867 167.512 62.5967 170.279 65.9731 172.896C69.3494 175.513 72.7623 178.037 76.3415 180.412C78.1494 181.553 79.9573 182.694 81.7652 183.835C83.4236 184.809 85.4009 186.339 87.3719 186.792C87.9669 186.918 88.3893 186.117 88.0338 185.655C86.6515 184.252 84.5111 183.41 82.8527 182.436C81.0448 181.295 79.2369 180.154 77.429 179.013C73.8498 176.638 70.4003 174.207 67.0606 171.497C63.6842 168.879 60.4742 166.113 57.3373 163.16C54.2569 160.336 51.3961 156.955 48.1128 154.374C47.5544 154.154 47.1487 154.64 47.4477 154.972Z" fill="#C88868"/>
<path d="M108.045 248.435C112.786 255.78 121.114 260.559 129.39 262.74C133.575 263.848 137.793 264.325 142.138 264.207C147.058 263.993 151.861 262.981 156.645 261.746C162.616 260.226 168.53 258.576 174.501 257.055C175.112 256.866 175.462 256.251 175.013 255.753C169.195 248.414 162.157 241.993 154.051 237.193C153.194 236.641 152.273 237.89 153.13 238.443C160.977 243.355 168.031 249.461 173.756 256.763C173.939 256.297 174.086 255.925 174.269 255.46C169.225 256.808 164.089 258.119 159.083 259.373C154.521 260.588 149.867 261.767 145.153 262.277C136.524 263.181 127.563 261.376 120.035 257.019C115.824 254.611 112.259 251.382 109.099 247.667C108.428 247.188 107.633 247.843 108.045 248.435Z" fill="#C88868"/>
<path d="M173.098 255.429C170.287 254.108 167.089 253.495 164.151 252.77C161.213 252.044 158.274 251.318 155.3 250.685C149.127 249.44 142.975 248.417 136.732 247.896C136.007 247.826 135.884 248.96 136.609 249.03C142.741 249.83 148.837 250.723 154.917 251.932C157.892 252.564 160.867 253.197 163.841 253.83C166.873 254.592 169.887 255.67 172.935 256.117C173.344 256.17 173.378 255.539 173.098 255.429Z" fill="#C88868"/>
<path d="M133.347 16.6108C132.516 17.3585 131.947 18.5317 131.415 19.6118C130.883 20.692 130.314 21.8652 129.874 22.9819C130.097 22.962 130.227 22.9056 130.486 22.7926C128.619 20.9836 125.863 19.7926 123.281 19.529C122.742 19.5322 122.636 20.3498 123.174 20.3467C124.401 20.5067 125.684 20.7964 126.764 21.3287C127.973 21.8045 128.98 22.5228 129.951 23.3343C130.1 23.5005 130.453 23.4242 130.562 23.145C131.002 22.0283 131.534 20.9481 132.103 19.7749C132.598 18.7879 133.353 17.6879 133.663 16.6276C133.663 16.6276 133.384 16.5178 133.347 16.6108Z" fill="#C88868"/>
<path d="M140.466 20.9141C138.673 22.4658 137.349 24.739 136.135 26.733C134.885 28.8201 133.598 31.0003 132.533 33.1605C132.812 33.2703 133.128 33.2871 133.407 33.3969C133.607 32.6158 133.138 31.8943 132.56 31.452C131.683 30.6771 130.546 30.0152 129.596 29.4265C127.472 28.2689 125.146 27.3539 122.729 26.9408C122.227 26.8509 122.121 27.6686 122.622 27.7585C124.63 28.1183 126.584 28.8869 128.372 29.805C129.266 30.264 130.124 30.8162 130.981 31.3683C131.56 31.8106 132.603 32.4359 132.367 33.3101C132.277 33.812 133.001 33.882 133.241 33.5464C134.342 31.2931 135.5 29.1694 136.843 27.1189C138.057 25.1249 139.551 23.2407 140.578 21.1734C140.781 20.9308 140.632 20.7646 140.466 20.9141Z" fill="#C88868"/>
<path d="M144.122 30.1964C140.521 33.6156 137.74 37.6799 135.538 42.1866C135.761 42.1667 136.113 42.0904 136.336 42.0706C135.233 40.7771 133.854 39.9123 132.198 39.4762C130.729 39.1133 128.835 39.0129 127.465 39.7637C127.076 39.9331 127.229 40.6378 127.711 40.505C129.177 40.3294 130.4 39.9509 131.962 40.3504C133.431 40.7132 134.661 41.4118 135.615 42.539C135.821 42.8349 136.266 42.7952 136.412 42.4229C138.541 38.1024 141.285 34.1311 144.308 30.2696C144.345 30.1765 144.159 30.1033 144.122 30.1964Z" fill="#C88868"/>
<path d="M111.176 42.3828C114.028 41.1407 116.881 39.8985 119.866 39.1384C120.219 39.0621 120.568 38.4472 120.139 38.1712C118.853 37.343 117.806 36.1792 117.019 34.9024C116.607 34.3106 116.361 33.5692 116.079 32.9209C116.003 32.5685 115.833 32.1795 115.757 31.8272C115.681 31.4748 115.641 31.0293 115.435 30.7334C115.136 30.4009 114.784 30.4772 114.637 30.8494C114.288 31.4643 114.833 32.5382 115.022 33.1499C115.268 33.8912 115.7 34.7058 116.075 35.3907C116.919 36.7971 118.151 38.0342 119.531 38.8989C119.64 38.6197 119.694 38.2109 119.804 37.9317C116.689 38.7483 113.613 40.0103 110.987 41.7711C110.654 42.0702 110.917 42.4958 111.176 42.3828Z" fill="#C88868"/>
<path d="M118.366 49.5109C118.848 49.3782 119.33 49.2454 119.812 49.1126C120.294 48.9798 120.813 48.754 121.332 48.5281C122.239 48.1329 123.147 47.7376 124.148 47.379C125.963 46.5885 127.815 45.705 129.667 44.8215C130.445 44.4827 129.937 43.3158 129.159 43.6545C127.307 44.5381 125.455 45.4216 123.51 46.2685C122.602 46.6637 121.658 47.152 120.75 47.5473C120.325 47.8097 119.936 47.9791 119.417 48.205C118.992 48.4674 118.566 48.7299 118.104 49.0854C117.994 49.3646 118.237 49.5674 118.366 49.5109Z" fill="#C88868"/>
<path d="M172.051 39.7839C170.103 40.0923 168.232 40.7531 166.36 41.4139C164.488 42.0747 162.58 42.8286 160.764 43.6191C160.914 43.7853 161.157 43.9882 161.306 44.1545C161.689 42.9081 161.885 41.5885 161.989 40.2323C162.019 39.0622 162.066 37.5763 161.485 36.5955C161.336 36.4292 161.169 36.5788 161.133 36.6718C161.006 37.2668 161.139 37.7488 161.142 38.2873C161.202 38.9555 161.168 39.5871 161.135 40.2186C161.068 41.4818 160.908 42.7083 160.562 43.8617C160.415 44.2339 160.807 44.603 161.103 44.397C162.919 43.6066 164.697 42.9092 166.569 42.2484C168.441 41.5876 170.276 41.0198 172.054 40.3224C172.443 40.153 172.274 39.764 172.051 39.7839Z" fill="#C88868"/>
<path d="M167.705 52.4731C165.455 51.9105 163.005 52.129 160.685 52.291C158.271 52.4164 155.878 52.7646 153.597 53.372C153.84 53.5749 153.989 53.7412 154.232 53.944C154.878 50.1149 154.484 46.1989 153.089 42.6416C152.864 42.123 152.086 42.4617 152.311 42.9804C153.65 46.408 153.987 50.1943 153.321 53.8007C153.305 54.1165 153.604 54.4491 153.956 54.3727C156.293 53.8949 158.593 53.5102 160.914 53.3481C163.234 53.1861 165.574 53.2468 167.931 52.9917C168.061 52.9353 167.928 52.4532 167.705 52.4731Z" fill="#C88868"/>
<path d="M160.639 60.3318C158.445 59.8988 156.088 60.1539 153.917 60.4822C151.747 60.8105 149.559 61.4545 147.428 62.2283C147.671 62.4311 147.95 62.5409 148.099 62.7072C148.819 58.6919 148.382 53.792 146.262 50.1646C146.037 49.646 145.165 49.9482 145.484 50.5034C146.331 52.4483 147.085 54.3566 147.32 56.4908C147.685 58.5685 147.605 60.6859 147.245 62.6936C147.192 63.1024 147.62 63.3785 147.916 63.1725C149.954 62.3622 152.105 61.8112 154.313 61.3898C156.39 61.0249 158.544 61.0124 160.715 60.6841C160.901 60.7573 160.918 60.4416 160.639 60.3318Z" fill="#C88868"/>
<path d="M176.249 68.7276C174.65 68.4212 172.758 68.8593 171.219 69.2211C169.587 69.5462 167.881 70.0575 166.269 70.6054C166.418 70.7717 166.698 70.8814 166.847 71.0477C167.28 68.854 167.434 66.5504 167.142 64.2866C167.046 63.7115 166.155 63.7909 166.215 64.4591C166.45 66.5933 166.426 68.8403 166.029 70.941C166.013 71.2568 166.348 71.4963 166.608 71.3834C168.127 70.7989 169.703 70.3441 171.372 69.9258C172.169 69.8098 173.004 69.6007 173.765 69.5777C174.563 69.4616 175.454 69.3822 176.288 69.1731C176.511 69.1532 176.564 68.7444 176.249 68.7276Z" fill="#C88868"/>
<path d="M171.986 79.8395C167.838 78.6379 163.071 79.557 159.125 81.1212C159.368 81.324 159.647 81.4338 159.796 81.6001C159.718 77.7009 159.251 73.971 158.115 70.3008C157.926 69.6891 157.018 70.0843 157.208 70.696C158.287 74.2366 158.79 77.8734 158.756 81.5133C158.703 81.9221 159.038 82.1616 159.427 81.9922C161.429 81.2749 163.45 80.7804 165.491 80.5086C167.532 80.2367 169.649 80.3173 171.71 80.2682C172.119 80.3215 172.302 79.8562 171.986 79.8395Z" fill="#C88868"/>
<path d="M164.295 88.7409C162.417 88.3247 160.376 88.5965 158.557 88.8484C156.609 89.1569 154.718 89.5949 152.939 90.2924C153.182 90.4952 153.424 90.6981 153.703 90.8079C154.234 86.1809 153.72 80.9286 151.634 76.6697C151.352 76.0214 150.444 76.4166 150.727 77.0649C151.464 79.289 152.238 81.42 152.493 83.7769C152.784 86.0408 152.817 88.4175 152.57 90.6845C152.517 91.0933 152.945 91.3694 153.334 91.2C155.076 90.5956 156.968 90.1576 158.823 89.8125C160.678 89.4675 162.516 89.4383 164.278 89.0566C164.501 89.0368 164.517 88.721 164.295 88.7409Z" fill="#C88868"/>
<path d="M181.821 84.8885C180.106 83.7843 178.281 82.9593 176.493 82.0411C176.513 82.2639 176.626 82.5232 176.646 82.7459C177.401 81.6459 178.063 80.5093 178.538 79.2995C179.107 78.1263 179.583 76.9165 179.873 75.6335C179.963 75.1316 179.182 74.9319 178.999 75.3972C178.523 76.607 178.177 77.7603 177.644 78.8404C177.076 80.0136 176.543 81.0938 175.825 82.1007C175.622 82.3433 175.735 82.6026 175.978 82.8055C177.802 83.6305 179.497 84.5121 181.395 85.151C181.897 85.2409 182.1 84.9983 181.821 84.8885Z" fill="#C88868"/>
<path d="M174.891 90.7593C173.808 89.6886 172.355 89.0099 170.903 88.3313C170.158 88.0385 169.414 87.7457 168.726 87.5825C168.038 87.4194 167.2 87.09 166.532 87.1496C166.087 87.1893 166.09 87.7278 166.425 87.9673C166.798 88.1137 167.207 88.167 167.579 88.3134C167.858 88.4232 168.267 88.4766 168.546 88.5864C169.327 88.7861 169.979 89.0423 170.723 89.3351C172.119 89.8841 173.349 90.5826 174.708 91.2247C174.987 91.3345 175.134 90.9622 174.891 90.7593Z" fill="#C88868"/>
<path d="M164.93 95.8677C164.053 95.0928 163.046 94.3744 161.966 93.8422C160.886 93.3099 159.769 92.8707 158.542 92.7107C158.04 92.6208 157.804 93.4949 158.306 93.5849C158.901 93.7114 159.496 93.838 159.961 94.021C160.427 94.204 161.022 94.3305 161.487 94.5135C162.604 94.9527 163.591 95.4483 164.505 96.1301C164.84 96.3696 165.08 96.0339 164.93 95.8677Z" fill="#C88868"/>
<path d="M168.162 128.087C166.936 127.927 165.656 128.176 164.506 128.368C163.263 128.524 162.076 128.809 160.889 129.095C158.515 129.666 156.068 130.423 153.771 131.346C154.014 131.549 154.313 131.881 154.555 132.084C155.301 129.368 155.618 126.377 155.007 123.558C154.855 122.853 153.741 122.952 153.857 123.75C154.188 126.459 154.184 128.929 153.439 131.645C153.349 132.147 153.704 132.609 154.223 132.383C156.52 131.46 158.874 130.666 161.248 130.095C162.434 129.81 163.621 129.524 164.771 129.332C165.922 129.14 167.165 128.984 168.202 128.532C168.462 128.419 168.385 128.067 168.162 128.087Z" fill="#C88868"/>
<path d="M164.869 143.017C157.889 143.281 150.751 145.309 144.135 147.65C144.378 147.853 144.62 148.056 144.863 148.259C145.244 143.466 144.714 138.529 143.053 134.008C142.808 133.266 141.734 133.811 142.016 134.459C143.49 138.908 144.074 143.435 143.73 148.135C143.676 148.544 144.105 148.82 144.457 148.744C147.848 147.499 151.166 146.44 154.597 145.64C157.935 144.803 161.349 144.319 164.743 143.612C165.318 143.516 165.222 142.941 164.869 143.017Z" fill="#C88868"/>
<path d="M155.879 158.501C149.304 158.28 142.702 159.766 136.568 161.975C136.847 162.084 137.089 162.287 137.462 162.434C137.191 157.384 134.972 152.643 131.59 148.949C131.048 148.414 130.124 149.125 130.665 149.66C134.028 153.132 136.004 157.67 136.348 162.533C136.388 162.978 136.853 163.161 137.242 162.992C143.376 160.784 149.609 159.689 156.028 158.668C156.085 158.797 156.101 158.482 155.879 158.501Z" fill="#C88868"/>
<path d="M184.655 176.59C182.944 176.024 181.215 175.774 179.487 175.524C177.665 175.237 175.88 174.858 174.152 174.608C174.265 174.867 174.378 175.126 174.434 175.256C176.26 173.073 177.88 170.594 178.383 167.675C178.456 167.489 178.14 167.472 178.104 167.566C176.8 170.061 175.625 172.501 173.8 174.684C173.597 174.927 173.766 175.316 174.082 175.332C175.81 175.582 177.595 175.962 179.324 176.212C181.052 176.462 182.837 176.842 184.675 176.812C184.825 176.979 184.842 176.663 184.655 176.59Z" fill="#C88868"/>
<path d="M175.696 187.894C174.577 186.916 173.42 186.031 172.097 185.296C170.961 184.634 169.658 184.122 168.355 183.61C165.656 182.548 162.904 181.896 160.042 181.522C160.155 181.782 160.305 181.948 160.418 182.207C161.991 178.205 162.84 174.134 163.131 169.842C163.128 169.304 162.404 169.234 162.407 169.772C162.059 173.934 161.117 177.969 159.487 181.841C159.377 182.12 159.547 182.509 159.862 182.526C165.456 183.329 170.631 185.472 175.494 188.136C175.716 188.116 175.789 187.93 175.696 187.894Z" fill="#C88868"/>
<path d="M163.971 199.401C158.192 195.517 151.568 193.234 144.764 191.955C144.877 192.214 145.046 192.603 145.159 192.863C147.567 188.652 148.523 183.762 147.734 178.939C147.581 178.234 146.561 178.37 146.584 179.131C147.26 183.696 146.414 188.306 144.209 192.274C143.969 192.61 144.102 193.092 144.604 193.182C151.315 194.424 157.643 196.913 163.768 199.644C163.954 199.717 164.121 199.568 163.971 199.401Z" fill="#C88868"/>
<path d="M163.197 225.961C158.583 224.576 153.807 223.88 149.014 223.499C149.127 223.758 149.24 224.018 149.353 224.277C150.663 222.858 151.73 221.236 152.555 219.412C153.344 217.68 154.019 215.689 154.027 213.758C154.044 213.442 153.894 213.276 153.708 213.203C153.522 213.13 153.392 213.186 153.262 213.243C153.04 213.262 152.93 213.542 152.95 213.764C152.627 215.679 152.284 217.371 151.495 219.102C150.707 220.834 149.676 222.363 148.495 223.725C148.256 224.061 148.482 224.579 148.834 224.503C153.627 224.884 158.311 225.544 163.05 226.333C163.33 226.443 163.383 226.034 163.197 225.961Z" fill="#C88868"/>
<path d="M149.819 240.578C148.569 239.657 146.987 239.035 145.535 238.356C143.989 237.641 142.407 237.019 140.732 236.36C137.568 235.116 134.201 234.114 130.89 233.242C131.003 233.501 131.116 233.76 131.229 234.02C132.946 229.107 134.178 223.789 134.296 218.57C134.366 217.846 133.233 217.722 133.163 218.447C132.636 223.612 131.866 228.575 130.205 233.617C130.096 233.896 130.172 234.249 130.544 234.395C133.762 235.231 137.036 236.196 140.2 237.44C141.689 238.026 143.271 238.648 144.76 239.234C146.342 239.856 147.944 240.701 149.562 241.23C149.822 241.117 150.061 240.781 149.819 240.578Z" fill="#C88868"/>
<path d="M132.769 249.776C130.789 247.708 128.217 246.052 125.794 244.562C123.278 243.035 120.689 241.694 117.99 240.633C118.103 240.892 118.16 241.022 118.273 241.281C119.863 236.964 120.486 232.373 119.717 227.772C119.657 227.104 118.637 227.24 118.696 227.908C119.316 232.343 118.896 236.691 117.379 240.822C117.269 241.101 117.382 241.361 117.661 241.47C120.323 242.625 122.949 243.872 125.465 245.399C127.887 246.889 130.107 248.622 132.566 250.019C132.643 250.371 132.975 250.072 132.769 249.776Z" fill="#C88868"/>
<path d="M162.161 258.65C161.706 257.074 160.769 255.631 159.759 254.374C158.692 252.987 157.553 251.787 156.227 250.513C156.117 250.792 156.1 251.108 155.99 251.387C159.292 250.644 162.178 248.77 164 246.048C164.313 245.527 163.549 245.011 163.236 245.533C161.486 248.069 158.767 249.793 155.781 250.553C155.429 250.629 155.246 251.095 155.545 251.427C156.721 252.534 157.861 253.735 158.871 254.992C159.881 256.249 160.725 257.655 161.772 258.819C161.958 258.892 162.181 258.872 162.161 258.65Z" fill="#C88868"/>
<path d="M156.37 240.039C151.466 242.945 146.655 245.889 141.263 247.851C141.003 247.964 140.82 248.43 141.063 248.632C144.575 252.27 146.049 256.718 146.004 261.751C146.027 262.512 147.124 262.729 147.231 261.911C147.944 256.819 145.48 251.337 141.765 247.941C141.748 248.257 141.731 248.573 141.621 248.852C146.864 246.723 152.254 244.222 156.54 240.428C156.836 240.222 156.63 239.926 156.37 240.039Z" fill="#C88868"/>
<path d="M131.209 262.487C130.728 259.612 129.19 256.965 127.469 254.784C126.608 253.693 125.655 252.566 124.628 251.625C124.086 251.089 123.508 250.647 122.93 250.205C122.351 249.763 121.81 249.227 121.122 249.064C120.713 249.011 120.493 249.569 120.699 249.865C121.055 250.327 121.67 250.676 122.155 251.082C122.733 251.524 123.218 251.93 123.76 252.466C124.787 253.407 125.777 254.441 126.637 255.531C128.358 257.713 129.524 260.213 130.783 262.75C130.876 262.786 131.229 262.71 131.209 262.487Z" fill="#C88868"/>
<path d="M94.871 231.111C94.2425 231.616 93.6141 232.121 93.0421 232.756C92.4701 233.39 91.8982 234.025 91.4757 234.826C90.4813 236.262 89.6729 237.771 88.9943 239.223C89.2536 239.11 89.5129 238.997 89.7722 238.884C86.6845 237.992 83.5967 237.1 80.5089 236.208C79.8209 236.045 79.4549 236.976 80.1063 237.232C83.1941 238.124 86.2453 239.109 89.333 240.001C89.6122 240.111 89.8716 239.998 90.111 239.662C90.7897 238.21 91.598 236.701 92.5558 235.358C93.4206 233.979 94.2854 232.6 95.2997 231.387C95.1868 231.128 94.9442 230.925 94.871 231.111Z" fill="#C88868"/>
<path d="M90.148 220.442C89.0009 221.173 88.0232 222.292 87.1751 223.356C86.2905 224.512 85.6286 225.649 84.9865 227.008C85.2458 226.895 85.3755 226.839 85.6348 226.726C84.0329 225.881 82.3379 225 80.6994 224.248C79.0609 223.496 77.3659 222.614 75.6542 222.049C74.9662 221.885 74.6368 222.723 75.2516 223.072C76.8536 223.917 78.6583 224.519 80.2968 225.271C81.9353 226.023 83.6669 226.812 85.342 227.47C85.6212 227.58 85.7875 227.431 85.9903 227.188C86.5958 225.922 87.2577 224.785 88.0127 223.685C88.8607 222.622 89.7652 221.688 90.6697 220.754C90.836 220.605 90.4073 220.329 90.148 220.442Z" fill="#C88868"/>
<path d="M108.983 83.7508C108.228 84.8508 108.108 86.5227 107.911 87.8423C107.771 89.2916 107.724 90.7775 107.807 92.2069C107.973 92.0573 108.269 91.8514 108.435 91.7018C106.594 91.1926 104.643 90.9625 102.655 90.8255C100.76 90.725 98.6793 90.5514 96.8609 90.8034C96.2858 90.8996 96.2356 91.8469 96.8671 91.8804C97.8145 91.9306 98.835 91.7947 99.819 91.7518C100.766 91.8021 101.621 91.8157 102.568 91.8659C104.463 91.9663 106.341 92.3825 108.199 92.576C108.515 92.5927 108.717 92.3501 108.734 92.0344C108.615 90.698 108.625 89.3052 108.766 87.856C108.799 87.2244 108.926 86.6294 109.089 85.9414C109.252 85.2534 109.415 84.5653 109.485 83.8407C109.429 83.711 109.093 83.4716 108.983 83.7508Z" fill="#C88868"/>
<path d="M120.018 87.6618C118.787 89.9716 118.228 92.7603 117.685 95.2333C117.126 98.022 116.752 100.884 116.472 103.782C116.768 103.576 117.027 103.464 117.323 103.258C114.514 102.475 111.596 101.972 108.717 101.915C107.325 101.904 105.839 101.857 104.466 102.069C103.129 102.189 101.514 102.198 100.217 102.763C99.7353 102.895 99.8147 103.786 100.353 103.783C101.653 103.757 102.933 103.508 104.176 103.352C105.606 103.27 107.035 103.187 108.521 103.234C111.363 103.385 114.132 103.722 116.847 104.467C117.219 104.614 117.608 104.444 117.698 103.942C117.905 101.23 118.242 98.4612 118.729 95.8586C119.018 94.5756 119.178 93.349 119.468 92.066C119.794 90.69 120.25 89.2575 120.354 87.9013C120.37 87.5855 120.091 87.4757 120.018 87.6618Z" fill="#C88868"/>
<path d="M128.885 98.993C127.618 101.396 126.76 103.852 125.864 106.401C125.006 108.858 124.483 111.553 123.588 114.102C123.754 113.953 124.013 113.84 124.18 113.69C121.374 113.447 118.515 113.612 115.806 113.943C114.47 114.062 113.097 114.275 111.687 114.58C110.501 114.865 108.885 114.875 107.831 115.642C107.498 115.941 107.631 116.423 108.04 116.477C109.267 116.637 110.693 116.016 111.843 115.823C113.123 115.574 114.366 115.419 115.739 115.206C118.542 114.912 121.271 114.803 124.056 114.824C124.372 114.841 124.668 114.635 124.685 114.319C125.078 111.68 126.01 109.037 126.775 106.545C127.541 104.052 128.492 101.632 129.258 99.1394C129.367 98.8602 129.088 98.7504 128.885 98.993Z" fill="#C88868"/>
<path d="M107.577 129.404C109.206 128.54 110.685 127.51 112.222 126.61C113.794 125.616 115.387 124.846 117.109 124.019C117.664 123.7 117.269 122.792 116.714 123.111C115.028 123.845 113.362 124.802 111.79 125.795C110.975 126.227 110.217 126.788 109.459 127.35C108.701 127.911 108.036 128.51 107.334 129.201C107.111 129.221 107.447 129.46 107.577 129.404Z" fill="#C88868"/>
<path d="M93.9305 123.393C94.9113 122.812 95.8723 122.008 96.7966 121.297C97.721 120.586 98.7384 119.911 99.7559 119.237C100.737 118.655 101.847 118.018 102.884 117.566C103.958 117.021 105.182 116.643 106.256 116.098C106.811 115.779 106.675 114.758 105.97 114.911C104.783 115.196 103.616 115.705 102.543 116.249C101.376 116.758 100.265 117.395 99.2477 118.07C98.2303 118.744 97.1198 119.382 96.1588 120.186C95.1979 120.99 94.1438 121.758 93.4254 122.765C93.186 123.1 93.5415 123.562 93.9305 123.393Z" fill="#C88868"/>
<path d="M87.3281 115.316C90.9418 114.05 94.5159 112.34 98.0167 110.815C98.4057 110.646 98.5323 110.051 98.16 109.905C95.365 108.268 92.9392 106.24 91.0487 103.669C90.6367 103.077 89.7124 103.788 90.1243 104.38C92.1079 106.987 94.6832 109.182 97.4782 110.818C97.495 110.503 97.5117 110.187 97.6215 109.908C94.1206 111.432 90.4337 112.883 87.0457 114.667C86.4706 114.763 86.846 115.448 87.3281 115.316Z" fill="#C88868"/>
<path d="M85.9748 134.877C84.5746 136.798 83.6596 139.125 83.097 141.375C82.4978 143.718 82.2144 146.078 82.2468 148.455C82.5061 148.342 82.6723 148.192 82.9317 148.08C78.541 146.675 73.9339 146.368 69.4063 146.951C68.6084 147.067 68.8008 148.217 69.5986 148.101C73.9402 147.445 78.4176 147.809 82.5657 149.01C82.9379 149.157 83.2704 148.857 83.1941 148.505C83.1617 146.128 83.3521 143.732 84.0444 141.425C84.7 139.211 85.6914 137.237 86.5896 135.227C86.736 134.854 86.1776 134.635 85.9748 134.877Z" fill="#C88868"/>
<path d="M103.393 144.415C100.567 146.957 98.6006 150.59 96.8376 153.98C94.9648 157.649 93.5572 161.501 92.522 165.5C92.8743 165.423 93.2267 165.347 93.6157 165.178C90.9839 162.853 87.3638 163.041 84.1328 163.06C80.5494 163.155 77.0224 163.38 73.4787 163.92C72.6809 164.036 72.8366 165.28 73.6345 165.164C76.9189 164.736 80.1666 164.401 83.4907 164.419C86.6287 164.364 90.3784 164.119 92.7677 166.241C93.1033 166.48 93.6784 166.384 93.8614 165.919C94.7869 162.2 96.1212 158.534 97.8278 155.014C99.571 151.401 101.892 148.231 103.915 144.728C103.858 144.598 103.652 144.303 103.393 144.415Z" fill="#C88868"/>
<path d="M110.909 162.737C106.17 168.503 102.438 174.987 99.0214 181.487C99.3737 181.411 99.6895 181.428 100.042 181.351C98.3208 179.17 95.439 178.574 92.8197 178.404C89.2896 178.09 85.7595 177.776 82.0998 177.519C81.3751 177.449 81.2151 178.675 81.9397 178.745C85.061 179.006 88.1822 179.266 91.2104 179.49C93.9228 179.697 97.2103 179.808 99.0809 182.156C99.38 182.488 99.862 182.355 100.101 182.02C103.518 175.519 107.549 169.368 111.208 163.07C111.354 162.697 111.112 162.495 110.909 162.737Z" fill="#C88868"/>
<path d="M71.5102 192.696C74.6848 192.547 77.873 191.544 81.0078 190.951C84.1793 190.264 87.2577 189.54 90.4657 188.76C91.3002 188.551 91.0879 187.178 90.2535 187.387C87.0454 188.167 83.874 188.854 80.6659 189.634C77.5875 190.358 74.2666 190.878 71.3774 192.214C71.1181 192.326 71.1944 192.679 71.5102 192.696Z" fill="#C88868"/>
<path d="M59.2679 182.294C61.7513 181.444 64.1783 180.464 66.6816 179.836C69.1849 179.209 71.6714 178.898 74.1778 178.809C74.7163 178.806 74.8795 178.118 74.617 177.692C72.1682 174.902 70.8664 171.381 70.0101 167.821C69.227 164.074 69.019 160.232 68.329 156.522C68.1199 155.687 66.9696 155.88 67.0491 156.771C67.1913 158.868 67.6126 161.076 67.9409 163.246C68.1929 165.065 68.5013 167.013 68.976 168.811C69.8323 172.372 71.1706 175.799 73.6195 178.589C73.7659 178.217 73.9123 177.845 74.0587 177.472C68.9162 177.707 63.2216 178.798 58.7995 181.572C58.2808 181.798 58.7493 182.519 59.2679 182.294Z" fill="#C88868"/>
<path d="M57.5649 157.66C57.6276 158.867 57.5607 160.13 57.6234 161.336C57.683 162.005 57.6861 162.543 57.7457 163.211C57.7289 163.527 57.8053 163.879 57.8251 164.102C57.845 164.325 57.9412 164.9 57.868 165.086C57.7017 165.236 57.3859 165.219 57.1998 165.146C56.884 165.129 56.5682 165.112 56.3089 165.225C55.6774 165.192 55.1022 165.288 54.4707 165.254C53.8025 165.314 53.1709 165.281 52.5028 165.34C51.8346 165.4 51.2961 165.403 50.6844 165.592C50.0727 165.781 50.3749 166.652 50.8768 166.742C51.5648 166.905 52.3626 166.789 53.0308 166.73C53.699 166.67 54.3671 166.611 55.0353 166.551C55.7965 166.528 56.4647 166.468 57.2625 166.352C57.801 166.349 58.4692 166.29 58.7819 165.768C59.1876 165.283 58.9419 164.541 58.9388 164.003C58.8792 163.335 58.8562 162.574 58.7966 161.905C58.714 160.476 58.4087 159.066 58.2331 157.6C58.0271 157.304 57.4886 157.308 57.5649 157.66Z" fill="#C88868"/>
</g>
<defs>
<clipPath id="clip0_1_2343">
<rect width="158.1" height="290" fill="white" transform="translate(106.139) rotate(21.4689)"/>
</clipPath>
</defs>
</svg>
